<svg width="24" height="24" viewBox="0 0 24 24" fill="none" xmlns="http://www.w3.org/2000/svg">
<path fill-rule="evenodd" clip-rule="evenodd" d="M8.92142 3.76574C9.06052 3.55709 9.29469 3.43176 9.54545 3.43176H14.4545C14.7053 3.43176 14.9395 3.55709 15.0786 3.76574L16.4923 5.88631H19.3636C19.9965 5.88631 20.6035 6.13773 21.0511 6.58526C21.4986 7.03279 21.75 7.63977 21.75 8.27267V17.2727C21.75 17.9056 21.4986 18.5126 21.0511 18.9601C20.6035 19.4076 19.9965 19.659 19.3636 19.659H4.63636C4.00346 19.659 3.39648 19.4076 2.94895 18.9601C2.50142 18.5126 2.25 17.9056 2.25 17.2727V8.27267C2.25 7.63977 2.50142 7.03279 2.94895 6.58526C3.39648 6.13773 4.00346 5.88631 4.63636 5.88631H7.5077L8.92142 3.76574ZM9.94684 4.93176L8.53313 7.05233C8.39403 7.26098 8.15986 7.38631 7.90909 7.38631H4.63636C4.40129 7.38631 4.17584 7.47969 4.00961 7.64592C3.84338 7.81214 3.75 8.03759 3.75 8.27267V17.2727C3.75 17.5078 3.84338 17.7332 4.00961 17.8994C4.17584 18.0657 4.40129 18.159 4.63636 18.159H19.3636C19.5987 18.159 19.8242 18.0657 19.9904 17.8994C20.1566 17.7332 20.25 17.5078 20.25 17.2727V8.27267C20.25 8.03759 20.1566 7.81214 19.9904 7.64592C19.8242 7.47969 19.5987 7.38631 19.3636 7.38631H16.0909C15.8401 7.38631 15.606 7.26098 15.4669 7.05233L14.0532 4.93176H9.94684Z" fill="#767676"/>
<path fill-rule="evenodd" clip-rule="evenodd" d="M12.0012 9.84009C10.608 9.84009 9.47852 10.9696 9.47852 12.3628C9.47852 13.7561 10.608 14.8855 12.0012 14.8855C13.3945 14.8855 14.524 13.7561 14.524 12.3628C14.524 10.9696 13.3945 9.84009 12.0012 9.84009ZM7.97852 12.3628C7.97852 10.1411 9.77955 8.34009 12.0012 8.34009C14.2229 8.34009 16.024 10.1411 16.024 12.3628C16.024 14.5845 14.2229 16.3855 12.0012 16.3855C9.77955 16.3855 7.97852 14.5845 7.97852 12.3628Z" fill="#767676"/>
</svg>
