<svg width="24" height="24" viewBox="0 0 24 24" fill="none" xmlns="http://www.w3.org/2000/svg">
<g clip-path="url(#clip0_234_7944)">
<path fill-rule="evenodd" clip-rule="evenodd" d="M4.60556 12C4.68752 12.1416 4.79619 12.3222 4.93081 12.5306C5.27658 13.066 5.78862 13.7779 6.4534 14.487C7.79664 15.9198 9.67463 17.25 12 17.25C14.3254 17.25 16.2034 15.9198 17.5466 14.487C18.2114 13.7779 18.7234 13.066 19.0692 12.5306C19.2038 12.3222 19.3125 12.1416 19.3944 12C19.3125 11.8584 19.2038 11.6778 19.0692 11.4694C18.7234 10.934 18.2114 10.2221 17.5466 9.51296C16.2034 8.08017 14.3254 6.75 12 6.75C9.67463 6.75 7.79664 8.08017 6.4534 9.51296C5.78862 10.2221 5.27658 10.934 4.93081 11.4694C4.79619 11.6778 4.68752 11.8584 4.60556 12ZM20.25 12C20.9208 11.6646 20.9207 11.6643 20.9206 11.6641L20.9202 11.6634L20.9193 11.6617L20.9168 11.6565L20.9082 11.6399C20.9011 11.626 20.891 11.6065 20.8779 11.5818C20.8518 11.5325 20.814 11.4624 20.7645 11.3745C20.6657 11.1987 20.5201 10.9511 20.3292 10.6556C19.9485 10.066 19.3824 9.27795 18.6409 8.48704C17.1716 6.91983 14.9246 5.25 12 5.25C9.07537 5.25 6.82836 6.91983 5.3591 8.48704C4.61763 9.27795 4.05155 10.066 3.67075 10.6556C3.47989 10.9511 3.33434 11.1987 3.23548 11.3745C3.18602 11.4624 3.14816 11.5325 3.12206 11.5818C3.10902 11.6065 3.09891 11.626 3.09175 11.6399L3.08324 11.6565L3.08065 11.6617L3.07978 11.6634L3.07944 11.6641C3.07931 11.6643 3.07918 11.6646 3.75 12L3.07918 11.6646C2.97361 11.8757 2.97361 12.1243 3.07918 12.3354L3.75 12C3.07918 12.3354 3.07931 12.3357 3.07944 12.3359L3.07978 12.3366L3.08065 12.3383L3.08324 12.3435L3.09175 12.3601C3.09891 12.374 3.10902 12.3935 3.12206 12.4182C3.14816 12.4675 3.18602 12.5376 3.23548 12.6255C3.33434 12.8013 3.47989 13.0489 3.67075 13.3444C4.05155 13.934 4.61763 14.7221 5.3591 15.513C6.82836 17.0802 9.07537 18.75 12 18.75C14.9246 18.75 17.1716 17.0802 18.6409 15.513C19.3824 14.7221 19.9485 13.934 20.3292 13.3444C20.5201 13.0489 20.6657 12.8013 20.7645 12.6255C20.814 12.5376 20.8518 12.4675 20.8779 12.4182C20.891 12.3935 20.9011 12.374 20.9082 12.3601L20.9168 12.3435L20.9193 12.3383L20.9202 12.3366L20.9206 12.3359C20.9207 12.3357 20.9208 12.3354 20.25 12ZM20.25 12L20.9208 12.3354C21.0264 12.1243 21.0264 11.8757 20.9208 11.6646L20.25 12Z" fill="#A8A8A8"/>
<path fill-rule="evenodd" clip-rule="evenodd" d="M12 10.5C11.1716 10.5 10.5 11.1716 10.5 12C10.5 12.8284 11.1716 13.5 12 13.5C12.8284 13.5 13.5 12.8284 13.5 12C13.5 11.1716 12.8284 10.5 12 10.5ZM9 12C9 10.3431 10.3431 9 12 9C13.6569 9 15 10.3431 15 12C15 13.6569 13.6569 15 12 15C10.3431 15 9 13.6569 9 12Z" fill="#A8A8A8"/>
</g>
<defs>
<clipPath id="clip0_234_7944">
<rect width="18" height="18" fill="white" transform="translate(3 3)"/>
</clipPath>
</defs>
</svg>
