<svg width="18" height="18" viewBox="0 0 18 18" fill="none" xmlns="http://www.w3.org/2000/svg">
<circle cx="9" cy="9" r="9" fill="#FF9B52"/>
<path fill-rule="evenodd" clip-rule="evenodd" d="M9.79333 7.15008C9.48846 6.48122 8.53831 6.48122 8.23344 7.15008L7.13726 9.55503L6.21632 8.50252C5.69514 7.90689 4.71411 8.2755 4.71411 9.06696V12.7857C4.71411 13.2591 5.09787 13.6429 5.57125 13.6429H8.82517C8.88581 13.6429 8.94413 13.637 8.99983 13.6259C9.05552 13.637 9.11384 13.6429 9.17448 13.6429H12.4284C12.9018 13.6429 13.2855 13.2591 13.2855 12.7857V9.06696C13.2855 8.2755 12.3045 7.90689 11.7833 8.50252L10.8802 9.53465L9.79333 7.15008Z" fill="white"/>
<path d="M9.83341 4.83333C9.83341 5.29357 9.46032 5.66667 9.00008 5.66667C8.53984 5.66667 8.16675 5.29357 8.16675 4.83333C8.16675 4.3731 8.53984 4 9.00008 4C9.46032 4 9.83341 4.3731 9.83341 4.83333Z" fill="white"/>
<path d="M13.9999 6.5013C13.9999 6.96154 13.6268 7.33464 13.1666 7.33464C12.7063 7.33464 12.3333 6.96154 12.3333 6.5013C12.3333 6.04106 12.7063 5.66797 13.1666 5.66797C13.6268 5.66797 13.9999 6.04106 13.9999 6.5013Z" fill="white"/>
<path d="M5.66667 6.5013C5.66667 6.96154 5.29357 7.33464 4.83333 7.33464C4.3731 7.33464 4 6.96154 4 6.5013C4 6.04106 4.3731 5.66797 4.83333 5.66797C5.29357 5.66797 5.66667 6.04106 5.66667 6.5013Z" fill="white"/>
</svg>
