<svg width="18" height="18" viewBox="0 0 18 18" fill="none" xmlns="http://www.w3.org/2000/svg">
<path fill-rule="evenodd" clip-rule="evenodd" d="M5.5 6.5625C5.38397 6.5625 5.27269 6.60859 5.19064 6.69064C5.10859 6.77269 5.0625 6.88397 5.0625 7V12.5C5.0625 12.616 5.10859 12.7273 5.19064 12.8094C5.27269 12.8914 5.38397 12.9375 5.5 12.9375H11C11.116 12.9375 11.2273 12.8914 11.3094 12.8094C11.3914 12.7273 11.4375 12.616 11.4375 12.5V9.5C11.4375 9.18934 11.6893 8.9375 12 8.9375C12.3107 8.9375 12.5625 9.18934 12.5625 9.5V12.5C12.5625 12.9144 12.3979 13.3118 12.1049 13.6049C11.8118 13.8979 11.4144 14.0625 11 14.0625H5.5C5.0856 14.0625 4.68817 13.8979 4.39515 13.6049C4.10212 13.3118 3.9375 12.9144 3.9375 12.5V7C3.9375 6.5856 4.10212 6.18817 4.39515 5.89515C4.68817 5.60212 5.0856 5.4375 5.5 5.4375H8.5C8.81066 5.4375 9.0625 5.68934 9.0625 6C9.0625 6.31066 8.81066 6.5625 8.5 6.5625H5.5Z" fill="#363636" stroke="#767676" stroke-width="0.5" stroke-linecap="round" stroke-linejoin="round"/>
<path fill-rule="evenodd" clip-rule="evenodd" d="M9.9375 4.5C9.9375 4.18934 10.1893 3.9375 10.5 3.9375H13.5C13.8107 3.9375 14.0625 4.18934 14.0625 4.5V7.5C14.0625 7.81066 13.8107 8.0625 13.5 8.0625C13.1893 8.0625 12.9375 7.81066 12.9375 7.5V5.0625H10.5C10.1893 5.0625 9.9375 4.81066 9.9375 4.5Z" fill="#363636" stroke="#767676" stroke-width="0.5" stroke-linecap="round" stroke-linejoin="round"/>
<path fill-rule="evenodd" clip-rule="evenodd" d="M13.8977 4.10225C14.1174 4.32192 14.1174 4.67808 13.8977 4.89775L8.39775 10.3977C8.17808 10.6174 7.82192 10.6174 7.60225 10.3977C7.38258 10.1781 7.38258 9.82192 7.60225 9.60225L13.1023 4.10225C13.3219 3.88258 13.6781 3.88258 13.8977 4.10225Z" fill="#363636" stroke="#767676" stroke-width="0.5" stroke-linecap="round" stroke-linejoin="round"/>
</svg>
