<svg width="119" height="24" viewBox="0 0 119 24" fill="none" xmlns="http://www.w3.org/2000/svg">
<path d="M114.229 20.3074C113.124 20.3074 112.229 19.412 112.229 18.3074V7C112.229 5.89543 113.124 5 114.229 5H116.999C118.104 5 118.999 5.89543 118.999 7V18.3074C118.999 19.412 118.104 20.3074 116.999 20.3074H114.229Z" fill="#29C4BA"/>
<path d="M93.7695 7C93.7695 5.89543 94.665 5 95.7695 5H103.771C105.503 5 106.863 5.43802 107.853 6.31407C108.843 7.18343 109.338 8.27347 109.338 9.5842C109.338 10.2126 109.228 10.7815 109.007 11.291C108.535 12.383 108.292 13.7542 108.88 14.7885C109.446 15.7846 109.878 16.8937 110.175 18.1157C110.456 19.2707 109.515 20.3074 108.326 20.3074H105.393C104.339 20.3074 103.484 19.4865 103.323 18.4452C103.166 17.4274 102.941 16.6204 102.647 16.0241C102.542 15.8078 102.423 15.6168 102.29 15.4512C101.599 14.5898 100.541 15.5353 100.541 16.6399V18.3074C100.541 19.412 99.6451 20.3074 98.5405 20.3074H95.7695C94.665 20.3074 93.7695 19.412 93.7695 18.3074V7ZM100.952 8.14976C100.725 8.14976 100.541 8.33389 100.541 8.56103V10.9083C100.541 11.0136 100.626 11.0989 100.731 11.0989C101.948 11.0989 102.557 10.6207 102.557 9.66445C102.557 9.2632 102.433 8.91212 102.186 8.61118C101.938 8.30357 101.527 8.14976 100.952 8.14976Z" fill="#29C4BA"/>
<path d="M85.9609 20.3074C84.8564 20.3074 83.9609 19.412 83.9609 18.3074V7C83.9609 5.89543 84.8564 5 85.9609 5H88.7319C89.8365 5 90.7319 5.89543 90.7319 7V18.3074C90.7319 19.412 89.8365 20.3074 88.7319 20.3074H85.9609Z" fill="#29C4BA"/>
<path d="M69.2524 5C70.357 5 71.2524 5.89543 71.2524 7V7.95992C71.2524 9.12353 72.3399 10.1091 73.2377 9.36889C73.483 9.16666 73.7006 8.92412 73.8906 8.64128C74.2037 8.17512 74.4353 7.62299 74.5856 6.98491C74.8387 5.90974 75.6888 5 76.7934 5H79.6948C80.7993 5 81.7145 5.89893 81.5877 6.9962C81.4725 7.99392 81.264 8.86662 80.9625 9.61429C80.8086 9.99577 80.6275 10.3567 80.4192 10.6969C79.7315 11.8203 79.7225 13.4283 80.4443 14.5301C81.1132 15.551 81.5868 16.7743 81.8652 18.1997C82.086 19.3305 81.1534 20.3074 80.0012 20.3074H76.7205C75.6529 20.3074 74.8014 19.4621 74.6033 18.413C74.3414 17.0257 73.8583 16.029 73.1539 15.423C72.2968 14.6855 71.2524 15.6573 71.2524 16.7881V18.3074C71.2524 19.412 70.357 20.3074 69.2524 20.3074H66.4814C65.3769 20.3074 64.4814 19.412 64.4814 18.3074V7C64.4814 5.89543 65.3769 5 66.4814 5H69.2524Z" fill="#29C4BA"/>
<path d="M49.771 5C50.8755 5 51.771 5.89543 51.771 7V7.95992C51.771 9.12353 52.8585 10.1091 53.7563 9.36889C54.0015 9.16666 54.2192 8.92412 54.4091 8.64128C54.7222 8.17512 54.9539 7.62299 55.1041 6.98491C55.3572 5.90974 56.2074 5 57.3119 5H60.2133C61.3179 5 62.2331 5.89893 62.1063 6.9962C61.991 7.99392 61.7826 8.86662 61.481 9.61429C61.3272 9.99577 61.1461 10.3567 60.9378 10.6969C60.25 11.8203 60.241 13.4283 60.9629 14.5301C61.6318 15.551 62.1054 16.7743 62.3837 18.1997C62.6045 19.3305 61.6719 20.3074 60.5198 20.3074H57.239C56.1714 20.3074 55.3199 19.4621 55.1219 18.413C54.86 17.0257 54.3769 16.029 53.6725 15.423C52.8153 14.6855 51.771 15.6573 51.771 16.7881V18.3074C51.771 19.412 50.8755 20.3074 49.771 20.3074H47C45.8954 20.3074 45 19.412 45 18.3074V7C45 5.89543 45.8954 5 47 5H49.771Z" fill="#29C4BA"/>
<circle cx="20" cy="12" r="12" fill="#BCEBE8"/>
<path fill-rule="evenodd" clip-rule="evenodd" d="M40.0842 8.88262C41.1256 10.4137 41.4727 11.9076 40.0842 13.0559C36.5226 16.1597 34.7887 16.6935 32.6545 16.9358C31.2593 17.0942 29.743 16.9238 28.7215 16.809C28.4121 16.7742 28.1481 16.7446 27.9466 16.7307C26.2144 16.6113 24.898 14.966 25.0062 13.0559C25.1145 11.1458 26.6065 9.69408 28.3387 9.81346C29.0536 9.86273 29.5852 9.92482 30.0299 9.97676C30.7835 10.0648 31.6092 9.89558 32.3326 9.81346C33.1662 9.71883 34.8118 8.91129 36.5226 7.49636C37.911 6.34804 39.0429 7.35153 40.0842 8.88262Z" fill="#BCEBE8"/>
<circle cx="26" cy="10" r="2" fill="#363636"/>
<circle cx="26.5" cy="9.5" r="0.5" fill="white"/>
<path d="M16.3468 4.11211C17.3191 4.49607 17.6192 5.65426 17.1263 6.57612L15.3236 9.947C14.8618 10.8106 13.8426 11.1933 12.874 11.0485C12.3266 10.9666 11.7541 10.9257 11.1563 10.9257C9.39522 10.9257 8.51468 11.3962 8.51468 12.3371C8.51468 12.7875 8.76041 13.1414 9.25188 13.3987C9.74334 13.648 10.4437 13.7727 11.3529 13.7727C11.8 13.7727 12.2244 13.7439 12.626 13.6864C13.7146 13.5305 14.9191 13.9158 15.4099 14.8999L17.1677 18.4249C17.6365 19.3649 17.299 20.5189 16.3185 20.8958C15.7395 21.1184 15.1123 21.3135 14.4369 21.4813C13.0444 21.8271 11.7133 22 10.4437 22C7.25734 22 4.71809 21.0993 2.82594 19.2978C0.94198 17.4883 0 15.2645 0 12.6267C0 9.83598 0.982935 7.53587 2.94881 5.72635C4.91468 3.90878 7.41297 3 10.4437 3C11.7543 3 13.1058 3.17693 14.4983 3.53079C15.1678 3.69609 15.7839 3.88986 16.3468 4.11211Z" fill="#29C4BA"/>
</svg>
