<svg width="24" height="24" viewBox="0 0 24 24" fill="none" xmlns="http://www.w3.org/2000/svg">
<path fill-rule="evenodd" clip-rule="evenodd" d="M12 10.5C11.1716 10.5 10.5 11.1716 10.5 12C10.5 12.8284 11.1716 13.5 12 13.5C12.8284 13.5 13.5 12.8284 13.5 12C13.5 11.1716 12.8284 10.5 12 10.5ZM9 12C9 10.3431 10.3431 9 12 9C13.6569 9 15 10.3431 15 12C15 13.6569 13.6569 15 12 15C10.3431 15 9 13.6569 9 12Z" fill="#A8A8A8"/>
<path fill-rule="evenodd" clip-rule="evenodd" d="M12 5.33333C11.8232 5.33333 11.6536 5.40357 11.5286 5.5286C11.4036 5.65362 11.3333 5.82319 11.3333 6V6.11599C11.332 6.46053 11.2299 6.79715 11.0396 7.08441C10.8494 7.37167 10.5793 7.59703 10.2626 7.73276C10.2063 7.75692 10.1469 7.77313 10.0864 7.78104C9.79865 7.88181 9.48888 7.90665 9.18733 7.85197C8.84 7.789 8.5195 7.62341 8.26716 7.37658L8.2619 7.37143L8.22193 7.3314C8.16001 7.26942 8.08623 7.21999 8.00529 7.18644C7.92436 7.15289 7.83761 7.13562 7.75 7.13562C7.66239 7.13562 7.57564 7.15289 7.49471 7.18644C7.41377 7.21999 7.34025 7.26916 7.27833 7.33114L7.27781 7.33167C7.21582 7.39358 7.16665 7.46711 7.1331 7.54804C7.09955 7.62897 7.08228 7.71572 7.08228 7.80333C7.08228 7.89094 7.09955 7.97769 7.1331 8.05863C7.16665 8.13956 7.21582 8.21308 7.27781 8.275L7.32327 8.32046C7.57011 8.57281 7.73566 8.89334 7.79864 9.24067C7.86036 9.58109 7.82075 9.93198 7.68497 10.2499C7.56126 10.5742 7.34465 10.8551 7.06203 11.0573C6.7737 11.2635 6.42999 11.3782 6.07559 11.3865L6.06 11.3867H6C5.82319 11.3867 5.65362 11.4569 5.5286 11.5819C5.40357 11.707 5.33333 11.8765 5.33333 12.0533C5.33333 12.2301 5.40357 12.3997 5.5286 12.5247C5.65362 12.6498 5.82319 12.72 6 12.72H6.11599C6.46053 12.7214 6.79715 12.8235 7.08441 13.0137C7.37067 13.2033 7.59547 13.4722 7.73134 13.7874C7.87272 14.1095 7.91474 14.4665 7.85197 14.8127C7.789 15.16 7.62341 15.4805 7.37658 15.7328L7.37143 15.7381L7.3314 15.7781C7.26942 15.84 7.21999 15.9138 7.18644 15.9947C7.15289 16.0756 7.13562 16.1624 7.13562 16.25C7.13562 16.3376 7.15289 16.4244 7.18644 16.5053C7.21999 16.5862 7.26916 16.6598 7.33114 16.7217L7.33167 16.7222C7.39358 16.7842 7.46711 16.8333 7.54804 16.8669C7.62897 16.9004 7.71572 16.9177 7.80333 16.9177C7.89094 16.9177 7.97769 16.9004 8.05863 16.8669C8.13956 16.8333 8.21309 16.7842 8.275 16.7222L8.32046 16.6767C8.57281 16.4299 8.89334 16.2643 9.24067 16.2014C9.58108 16.1396 9.93197 16.1792 10.2498 16.315C10.5742 16.4387 10.8551 16.6553 11.0573 16.938C11.2635 17.2263 11.3782 17.57 11.3865 17.9244L11.3867 17.94V18C11.3867 18.1768 11.4569 18.3464 11.5819 18.4714C11.707 18.5964 11.8765 18.6667 12.0533 18.6667C12.2301 18.6667 12.3997 18.5964 12.5247 18.4714C12.6498 18.3464 12.72 18.1768 12.72 18V17.8867L12.72 17.884C12.7214 17.5395 12.8235 17.2029 13.0137 16.9156C13.2033 16.6293 13.4722 16.4045 13.7875 16.2686C14.1096 16.1273 14.4665 16.0853 14.8127 16.148C15.16 16.211 15.4805 16.3766 15.7328 16.6234L15.7381 16.6286L15.7781 16.6686C15.84 16.7306 15.9138 16.78 15.9947 16.8136C16.0756 16.8471 16.1624 16.8644 16.25 16.8644C16.3376 16.8644 16.4244 16.8471 16.5053 16.8136C16.5862 16.78 16.6598 16.7308 16.7217 16.6689L16.7222 16.6683C16.7842 16.6064 16.8333 16.5329 16.8669 16.452C16.9004 16.371 16.9177 16.2843 16.9177 16.1967C16.9177 16.1091 16.9004 16.0223 16.8669 15.9414C16.8333 15.8604 16.7842 15.7869 16.7222 15.725L16.6767 15.6795C16.4299 15.4272 16.2643 15.1067 16.2014 14.7593C16.1386 14.4132 16.1806 14.0562 16.322 13.7342C16.4578 13.4189 16.6826 13.15 16.9689 12.9604C17.2562 12.7701 17.5928 12.668 17.9373 12.6667L17.94 12.6667L18 12.6667C18.1768 12.6667 18.3464 12.5964 18.4714 12.4714C18.5964 12.3464 18.6667 12.1768 18.6667 12C18.6667 11.8232 18.5964 11.6536 18.4714 11.5286C18.3464 11.4036 18.1768 11.3333 18 11.3333H17.8867L17.884 11.3333C17.5395 11.332 17.2029 11.2299 16.9156 11.0396C16.6283 10.8494 16.403 10.5793 16.2672 10.2626C16.2431 10.2063 16.2269 10.1469 16.219 10.0864C16.1182 9.79865 16.0933 9.48888 16.148 9.18733C16.211 8.84 16.3766 8.5195 16.6234 8.26716L16.6286 8.2619L16.6686 8.22193C16.7306 8.16001 16.78 8.08622 16.8136 8.00529C16.8471 7.92436 16.8644 7.83761 16.8644 7.75C16.8644 7.66239 16.8471 7.57564 16.8136 7.49471C16.78 7.41378 16.7308 7.34025 16.6689 7.27833L16.6683 7.27781C16.6064 7.21582 16.5329 7.16665 16.452 7.1331C16.371 7.09955 16.2843 7.08228 16.1967 7.08228C16.1091 7.08228 16.0223 7.09955 15.9414 7.1331C15.8604 7.16665 15.7869 7.21583 15.725 7.27781L15.6795 7.32327C15.4272 7.57011 15.1067 7.73566 14.7593 7.79864C14.4132 7.86141 14.0562 7.81939 13.7341 7.67801C13.4188 7.54213 13.15 7.31734 12.9604 7.03108C12.7701 6.74382 12.668 6.4072 12.6667 6.06266L12.6667 6.06V6C12.6667 5.82319 12.5964 5.65362 12.4714 5.5286C12.3464 5.40357 12.1768 5.33333 12 5.33333ZM10.5858 4.58579C10.9609 4.21071 11.4696 4 12 4C12.5304 4 13.0391 4.21071 13.4142 4.58579C13.7893 4.96086 14 5.46957 14 6V6.05833C14.0005 6.1425 14.0256 6.22469 14.072 6.29488C14.1187 6.36534 14.1849 6.42062 14.2626 6.45391L14.2692 6.45672C14.3484 6.49168 14.4363 6.50215 14.5215 6.4867C14.6057 6.47142 14.6835 6.43152 14.7451 6.37207L14.7817 6.33552C14.9674 6.14957 15.188 6.00205 15.4308 5.90141C15.6736 5.80076 15.9338 5.74895 16.1967 5.74895C16.4595 5.74895 16.7198 5.80076 16.9625 5.90141C17.2053 6.00205 17.4259 6.14957 17.6117 6.33552C17.7974 6.52116 17.9447 6.74155 18.0453 6.98412C18.1459 7.22691 18.1977 7.48717 18.1977 7.75C18.1977 8.01283 18.1459 8.27309 18.0453 8.51588C17.9447 8.75856 17.7972 8.97905 17.6114 9.16474C17.6113 9.16482 17.6115 9.16465 17.6114 9.16474L17.5746 9.20154C17.5151 9.26312 17.4752 9.34095 17.46 9.42521C17.4445 9.51041 17.4549 9.59828 17.4899 9.67749C17.5087 9.72018 17.523 9.76462 17.5325 9.81004C17.5641 9.85653 17.6045 9.89665 17.6518 9.92796C17.722 9.97444 17.8042 9.99947 17.8883 10H18C18.5304 10 19.0391 10.2107 19.4142 10.5858C19.7893 10.9609 20 11.4696 20 12C20 12.5304 19.7893 13.0391 19.4142 13.4142C19.0391 13.7893 18.5304 14 18 14H17.9417C17.8575 14.0005 17.7753 14.0256 17.7051 14.072C17.6347 14.1187 17.5794 14.1849 17.5461 14.2626L17.5433 14.2692C17.5083 14.3484 17.4979 14.4363 17.5133 14.5215C17.5286 14.6057 17.5685 14.6835 17.6279 14.7451L17.6645 14.7817C17.6644 14.7816 17.6646 14.7818 17.6645 14.7817C17.8503 14.9674 17.998 15.1881 18.0986 15.4308C18.1992 15.6736 18.251 15.9338 18.251 16.1967C18.251 16.4595 18.1992 16.7198 18.0986 16.9625C17.9979 17.2053 17.8504 17.4259 17.6645 17.6117L17.1933 17.14L17.665 17.6111C17.4793 17.7971 17.2587 17.9446 17.0159 18.0453C16.7731 18.1459 16.5128 18.1977 16.25 18.1977C15.9872 18.1977 15.7269 18.1459 15.4841 18.0453C15.2414 17.9447 15.021 17.7972 14.8353 17.6114C14.8352 17.6113 14.8353 17.6115 14.8353 17.6114L14.7984 17.5746C14.7369 17.5151 14.659 17.4752 14.5748 17.46C14.4896 17.4445 14.4017 17.4549 14.3225 17.4899L14.316 17.4928C14.2383 17.5261 14.172 17.5813 14.1254 17.6518C14.0789 17.722 14.0539 17.8042 14.0533 17.8883V18C14.0533 18.5304 13.8426 19.0391 13.4675 19.4142C13.0925 19.7893 12.5838 20 12.0533 20C11.5229 20 11.0142 19.7893 10.6391 19.4142C10.264 19.0391 10.0533 18.5304 10.0533 18V17.9496C10.0502 17.8648 10.0222 17.7827 9.97276 17.7136C9.92218 17.6429 9.85149 17.589 9.76988 17.559C9.7567 17.5542 9.74367 17.5489 9.73082 17.5432C9.65161 17.5083 9.56374 17.4979 9.47855 17.5133C9.39428 17.5286 9.31645 17.5685 9.25487 17.6279L9.21833 17.6645C9.21825 17.6646 9.21842 17.6644 9.21833 17.6645C9.03264 17.8503 8.8119 17.998 8.56921 18.0986C8.32642 18.1992 8.06617 18.251 7.80333 18.251C7.5405 18.251 7.28025 18.1992 7.03745 18.0986C6.79489 17.998 6.5745 17.8507 6.38886 17.665C6.2029 17.4793 6.05539 17.2587 5.95474 17.0159C5.85409 16.7731 5.80228 16.5128 5.80228 16.25C5.80228 15.9872 5.85409 15.7269 5.95474 15.4841C6.05539 15.2413 6.2029 15.0207 6.38886 14.835L6.42541 14.7985C6.48486 14.7369 6.52475 14.659 6.54003 14.5748C6.55548 14.4896 6.54505 14.4017 6.51009 14.3225L6.5072 14.316C6.47391 14.2383 6.41867 14.172 6.34821 14.1254C6.27803 14.0789 6.19583 14.0539 6.11167 14.0533H6C5.46957 14.0533 4.96086 13.8426 4.58579 13.4675C4.21071 13.0925 4 12.5838 4 12.0533C4 11.5229 4.21071 11.0142 4.58579 10.6391C4.96086 10.264 5.46957 10.0533 6 10.0533H6.05043C6.13522 10.0502 6.21728 10.0222 6.28637 9.97276C6.35709 9.92218 6.41096 9.85149 6.44098 9.76988C6.44582 9.7567 6.45109 9.74367 6.45676 9.73082C6.49172 9.65161 6.50215 9.56374 6.4867 9.47855C6.47142 9.39428 6.43152 9.31645 6.37206 9.25487L6.33552 9.21833C6.14957 9.03259 6.00205 8.81201 5.90141 8.56921C5.80076 8.32642 5.74895 8.06616 5.74895 7.80333C5.74895 7.5405 5.80076 7.28025 5.90141 7.03745C6.00201 6.79477 6.14943 6.57429 6.33526 6.3886C6.52095 6.20277 6.74144 6.05534 6.98412 5.95474C7.22692 5.85409 7.48717 5.80228 7.75 5.80228C8.01283 5.80228 8.27308 5.85409 8.51588 5.95474C8.75868 6.05539 8.97925 6.2029 9.165 6.38886L9.20154 6.4254C9.26312 6.48485 9.34095 6.52475 9.42521 6.54003C9.51041 6.55548 9.59828 6.54505 9.67749 6.51009C9.72018 6.49125 9.76462 6.47699 9.81005 6.46748C9.85653 6.43593 9.89666 6.39549 9.92796 6.34821C9.97444 6.27803 9.99947 6.19583 10 6.11167V6C10 5.46957 10.2107 4.96086 10.5858 4.58579Z" fill="#A8A8A8"/>
</svg>
