<svg width="9" height="2" viewBox="0 0 9 2" fill="none" xmlns="http://www.w3.org/2000/svg">
<g id="&#235;&#148;&#148;&#236;&#158;&#144;&#236;&#157;&#180;&#235;&#132;&#136;">
<path id="Vector" d="M7.45312 1.9082C6.94922 1.9082 6.53906 1.49805 6.53906 0.994141C6.53906 0.501953 6.94922 0.0917969 7.45312 0.0917969C7.93359 0.0917969 8.35547 0.501953 8.35547 0.994141C8.35547 1.49805 7.93359 1.9082 7.45312 1.9082Z" fill="#767676"/>
<path id="Vector_2" d="M4.18359 1.9082C3.67969 1.9082 3.26953 1.49805 3.26953 0.994141C3.26953 0.501953 3.67969 0.0917969 4.18359 0.0917969C4.66406 0.0917969 5.08594 0.501953 5.08594 0.994141C5.08594 1.49805 4.66406 1.9082 4.18359 1.9082Z" fill="#767676"/>
<path id="Vector_3" d="M0.914062 1.9082C0.410156 1.9082 0 1.49805 0 0.994141C0 0.501953 0.410156 0.0917969 0.914062 0.0917969C1.39453 0.0917969 1.81641 0.501953 1.81641 0.994141C1.81641 1.49805 1.39453 1.9082 0.914062 1.9082Z" fill="#767676"/>
</g>
</svg>
