<svg width="16" height="16" viewBox="0 0 16 16" fill="none" xmlns="http://www.w3.org/2000/svg">
<g id="settings">
<g id="Group 721">
<path id="Vector (Stroke)" fill-rule="evenodd" clip-rule="evenodd" d="M7.38281 12.7189C7.38281 12.378 7.65922 12.1016 8.00017 12.1016L12.7161 12.1016C13.0571 12.1016 13.3335 12.378 13.3335 12.7189C13.3335 13.0599 13.0571 13.3363 12.7161 13.3363L8.00017 13.3363C7.65922 13.3363 7.38281 13.0599 7.38281 12.7189Z" fill="#29C4BA"/>
<path id="Vector (Stroke)_2" fill-rule="evenodd" clip-rule="evenodd" d="M11.1441 3.90269C11.0232 3.90269 10.9007 3.95287 10.8054 4.0531L4.37021 10.8185L4.12292 11.8585L5.05361 11.6138L11.4827 4.85479C11.5302 4.80489 11.5694 4.744 11.5966 4.67484C11.6239 4.60565 11.6383 4.5305 11.6383 4.45394C11.6383 4.37738 11.6239 4.30223 11.5966 4.23304C11.5694 4.16388 11.5302 4.10299 11.4827 4.0531C11.4353 4.00326 11.3807 3.96548 11.323 3.94031C11.2652 3.91518 11.2045 3.90269 11.1441 3.90269ZM9.91074 3.20212C10.2323 2.86404 10.6753 2.66797 11.1441 2.66797C11.3755 2.66797 11.6039 2.71594 11.8159 2.80826C12.0278 2.90055 12.2183 3.03492 12.3774 3.20212C12.5364 3.36926 12.6609 3.56602 12.7454 3.78043C12.8299 3.9948 12.873 4.22357 12.873 4.45394C12.873 4.68431 12.8299 4.91308 12.7454 5.12745C12.6609 5.34186 12.5364 5.53862 12.3774 5.70576L5.82743 12.5919C5.74844 12.6749 5.64789 12.7343 5.53704 12.7635L3.44106 13.3143C3.23127 13.3695 3.00793 13.3105 2.85275 13.1589C2.69758 13.0073 2.63333 12.7855 2.68351 12.5744L3.20751 10.3709C3.23274 10.2648 3.28563 10.1672 3.3608 10.0882L9.91074 3.20212Z" fill="#29C4BA"/>
</g>
</g>
</svg>
