<svg width="14" height="14" viewBox="0 0 14 14" fill="none" xmlns="http://www.w3.org/2000/svg">
<g id="Group 2608788">
<path id="Vector (Stroke)" fill-rule="evenodd" clip-rule="evenodd" d="M12.8047 1.19526C13.0651 1.45561 13.0651 1.87772 12.8047 2.13807L2.13807 12.8047C1.87772 13.0651 1.45561 13.0651 1.19526 12.8047C0.934913 12.5444 0.934913 12.1223 1.19526 11.8619L11.8619 1.19526C12.1223 0.934913 12.5444 0.934913 12.8047 1.19526Z" fill="#ED1C24" stroke="#ED1C24" stroke-linecap="round" stroke-linejoin="round"/>
<path id="Vector (Stroke)_2" fill-rule="evenodd" clip-rule="evenodd" d="M1.19526 1.19526C1.45561 0.934913 1.87772 0.934913 2.13807 1.19526L12.8047 11.8619C13.0651 12.1223 13.0651 12.5444 12.8047 12.8047C12.5444 13.0651 12.1223 13.0651 11.8619 12.8047L1.19526 2.13807C0.934913 1.87772 0.934913 1.45561 1.19526 1.19526Z" fill="#ED1C24" stroke="#ED1C24" stroke-linecap="round" stroke-linejoin="round"/>
</g>
</svg>
