<svg width="14" height="12" viewBox="0 0 14 12" fill="none" xmlns="http://www.w3.org/2000/svg">
<g id="Group 2608883">
<path id="Vector (Stroke)" fill-rule="evenodd" clip-rule="evenodd" d="M0.583333 0.748535C0.905499 0.748535 1.16667 1.0097 1.16667 1.33187V4.24854H4.08333C4.4055 4.24854 4.66667 4.5097 4.66667 4.83187C4.66667 5.15404 4.4055 5.4152 4.08333 5.4152H0.583333C0.261167 5.4152 0 5.15404 0 4.83187V1.33187C0 1.0097 0.261167 0.748535 0.583333 0.748535Z" fill="#767676"/>
<path id="Vector (Stroke)_2" fill-rule="evenodd" clip-rule="evenodd" d="M9.3335 7.16488C9.3335 6.84271 9.59466 6.58154 9.91683 6.58154H13.4168C13.739 6.58154 14.0002 6.84271 14.0002 7.16488V10.6649C14.0002 10.987 13.739 11.2482 13.4168 11.2482C13.0947 11.2482 12.8335 10.987 12.8335 10.6649V7.74821H9.91683C9.59466 7.74821 9.3335 7.48704 9.3335 7.16488Z" fill="#767676"/>
<path id="Vector (Stroke)_3" fill-rule="evenodd" clip-rule="evenodd" d="M5.38239 0.396213C6.32897 0.122414 7.32948 0.0928648 8.29057 0.310323C9.25166 0.527781 10.142 0.985159 10.8785 1.63978C11.615 2.2944 12.1737 3.12492 12.5024 4.05386C12.6099 4.35757 12.4508 4.6909 12.1471 4.79837C11.8434 4.90585 11.5101 4.74677 11.4026 4.44305C11.1396 3.69991 10.6927 3.03549 10.1035 2.51179C9.51424 1.98809 8.80197 1.62219 8.0331 1.44823C7.26423 1.27426 6.46382 1.2979 5.70656 1.51694C4.9493 1.73598 4.25986 2.14328 3.70258 2.70083C3.69827 2.70514 3.6939 2.70939 3.68946 2.71356L0.982788 5.2569C0.748009 5.47751 0.378841 5.46602 0.158229 5.23124C-0.0623826 4.99646 -0.0508975 4.6273 0.183882 4.40668L2.88406 1.86945C3.57949 1.17591 4.43882 0.669142 5.38239 0.396213ZM13.8418 6.76567C14.0624 7.00045 14.0509 7.36962 13.8161 7.59023L11.1159 10.1275C10.4205 10.821 9.56118 11.3278 8.61762 11.6007C7.67104 11.8745 6.67052 11.904 5.70944 11.6866C4.74835 11.4691 3.85801 11.0118 3.1215 10.3571C2.38499 9.70251 1.8263 8.87199 1.49758 7.94305C1.39011 7.63934 1.54919 7.30601 1.8529 7.19854C2.15662 7.09107 2.48995 7.25015 2.59742 7.55386C2.8604 8.29701 3.30734 8.96143 3.89655 9.48512C4.48576 10.0088 5.19803 10.3747 5.9669 10.5487C6.73577 10.7227 7.53618 10.699 8.29344 10.48C9.05071 10.2609 9.74014 9.85364 10.2974 9.29608C10.3 9.29349 10.3026 9.29092 10.3053 9.28838C10.307 9.28669 10.3088 9.28502 10.3106 9.28335L13.0172 6.74002C13.252 6.51941 13.6212 6.53089 13.8418 6.76567Z" fill="#767676"/>
</g>
</svg>
