<svg width="24" height="24" viewBox="0 0 24 24" fill="none" xmlns="http://www.w3.org/2000/svg">
<g id="type=&#236;&#138;&#164;&#237;&#129;&#172;&#235;&#158;&#169;">
<path id="Vector" d="M18 18.0801C18 18.4765 17.5607 18.7153 17.2281 18.4997L12.2719 15.2874C12.1065 15.1801 11.8935 15.1801 11.7281 15.2874L6.77195 18.4997C6.43929 18.7153 6 18.4765 6 18.0801V6.55556C6 6.143 6.18061 5.74733 6.5021 5.45561C6.82359 5.16389 7.25963 5 7.71429 5H16.2857C16.7404 5 17.1764 5.16389 17.4979 5.45561C17.8194 5.74733 18 6.143 18 6.55556V18.0801Z" fill="white"/>
<path id="Vector (Stroke)" fill-rule="evenodd" clip-rule="evenodd" d="M18 6.55556C18 6.143 17.8194 5.74733 17.4979 5.45561C17.1764 5.16389 16.7404 5 16.2857 5H7.71429C7.25963 5 6.82359 5.16389 6.5021 5.45561C6.18061 5.74733 6 6.143 6 6.55556V18.0801C6 18.4765 6.43929 18.7153 6.77195 18.4997L11.7281 15.2874C11.8935 15.1801 12.1065 15.1801 12.2719 15.2874L17.2281 18.4997C17.5607 18.7153 18 18.4765 18 18.0801V6.55556ZM16.5 16.2403V6.5767C16.4976 6.57395 16.4944 6.57049 16.4899 6.56645C16.4584 6.53786 16.387 6.5 16.2857 6.5H7.71429C7.61295 6.5 7.54159 6.53786 7.51009 6.56645C7.50564 6.57048 7.50236 6.57395 7.5 6.5767V16.2403L10.9122 14.0286C11.574 13.5997 12.426 13.5997 13.0878 14.0286L16.5 16.2403Z" fill="#A8A8A8"/>
</g>
</svg>
