<svg width="18" height="18" viewBox="0 0 18 18" fill="none" xmlns="http://www.w3.org/2000/svg">
<g id="Group 2608780">
<path id="Vector (Stroke)" fill-rule="evenodd" clip-rule="evenodd" d="M8.07689 1.3846C4.38084 1.3846 1.3846 4.38084 1.3846 8.07689C1.3846 11.7729 4.38084 14.7692 8.07689 14.7692C11.7729 14.7692 14.7692 11.7729 14.7692 8.07689C14.7692 4.38084 11.7729 1.3846 8.07689 1.3846ZM0 8.07689C0 3.61615 3.61615 0 8.07689 0C12.5376 0 16.1538 3.61615 16.1538 8.07689C16.1538 12.5376 12.5376 16.1538 8.07689 16.1538C3.61615 16.1538 0 12.5376 0 8.07689Z" fill="#767676"/>
<path id="Vector (Stroke)_2" fill-rule="evenodd" clip-rule="evenodd" d="M12.8034 12.8026C13.0737 12.5323 13.5121 12.5323 13.7824 12.8026L17.7978 16.818C18.0682 17.0884 18.0682 17.5267 17.7978 17.7971C17.5274 18.0674 17.0891 18.0674 16.8187 17.7971L12.8034 13.7817C12.533 13.5113 12.533 13.073 12.8034 12.8026Z" fill="#767676"/>
</g>
</svg>
