<svg width="178" height="36" viewBox="0 0 178 36" fill="none" xmlns="http://www.w3.org/2000/svg">
<path d="M170.864 30.4611C169.211 30.4611 167.872 29.118 167.872 27.4611V10.5C167.872 8.84315 169.211 7.5 170.864 7.5H175.009C176.661 7.5 178 8.84315 178 10.5V27.4611C178 29.118 176.661 30.4611 175.009 30.4611H170.864Z" fill="#29C4BA"/>
<path d="M140.261 10.5C140.261 8.84315 141.6 7.5 143.252 7.5H155.22C157.811 7.5 159.847 8.15703 161.327 9.4711C162.808 10.7751 163.548 12.4102 163.548 14.3763C163.548 15.3189 163.383 16.1723 163.054 16.9364C162.347 18.5746 161.983 20.6313 162.863 22.1827C163.71 23.6769 164.356 25.3405 164.801 27.1735C165.221 28.9061 163.813 30.4611 162.035 30.4611H157.647C156.07 30.4611 154.792 29.2298 154.551 27.6678C154.316 26.1411 153.979 24.9306 153.54 24.0362C153.383 23.7117 153.205 23.4252 153.006 23.1768C151.971 21.8848 150.389 23.3029 150.389 24.9598V27.4611C150.389 29.118 149.049 30.4611 147.397 30.4611H143.252C141.6 30.4611 140.261 29.118 140.261 27.4611V10.5ZM151.004 12.2246C150.664 12.2246 150.389 12.5008 150.389 12.8415V16.3624C150.389 16.5203 150.516 16.6483 150.674 16.6483C152.494 16.6483 153.405 15.9311 153.405 14.4967C153.405 13.8948 153.22 13.3682 152.85 12.9168C152.479 12.4553 151.864 12.2246 151.004 12.2246Z" fill="#29C4BA"/>
<path d="M128.581 30.4611C126.929 30.4611 125.59 29.118 125.59 27.4611V10.5C125.59 8.84315 126.929 7.5 128.581 7.5H132.726C134.379 7.5 135.718 8.84315 135.718 10.5V27.4611C135.718 29.118 134.379 30.4611 132.726 30.4611H128.581Z" fill="#29C4BA"/>
<path d="M103.589 7.5C105.241 7.5 106.58 8.84315 106.58 10.5V11.9399C106.58 13.6853 108.207 15.1637 109.55 14.0533C109.917 13.75 110.242 13.3862 110.526 12.9619C110.995 12.2627 111.341 11.4345 111.566 10.4774C111.945 8.86461 113.216 7.5 114.868 7.5H119.208C120.861 7.5 122.229 8.8484 122.04 10.4943C121.867 11.9909 121.556 13.2999 121.105 14.4214C120.874 14.9937 120.604 15.535 120.292 16.0454C119.263 17.7305 119.25 20.1424 120.329 21.7951C121.33 23.3266 122.038 25.1614 122.455 27.2996C122.785 28.9958 121.39 30.4611 119.667 30.4611H114.759C113.162 30.4611 111.889 29.1932 111.593 27.6196C111.201 25.5386 110.478 24.0436 109.425 23.1345C108.142 22.0282 106.58 23.486 106.58 25.1821V27.4611C106.58 29.118 105.241 30.4611 103.589 30.4611H99.4438C97.7915 30.4611 96.4521 29.118 96.4521 27.4611V10.5C96.4521 8.84315 97.7915 7.5 99.4438 7.5H103.589Z" fill="#29C4BA"/>
<path d="M74.448 7.5C76.1002 7.5 77.4396 8.84315 77.4396 10.5V11.9399C77.4396 13.6853 79.0663 15.1637 80.4092 14.0533C80.7761 13.75 81.1016 13.3862 81.3858 12.9619C81.8541 12.2627 82.2006 11.4345 82.4253 10.4774C82.8039 8.8646 84.0756 7.5 85.7278 7.5H90.0677C91.7199 7.5 93.0888 8.8484 92.8992 10.4943C92.7268 11.9909 92.415 13.2999 91.9639 14.4214C91.7338 14.9937 91.4629 15.535 91.1513 16.0454C90.1226 17.7305 90.1091 20.1424 91.1889 21.7951C92.1894 23.3266 92.8978 25.1614 93.3142 27.2996C93.6445 28.9958 92.2495 30.4611 90.5261 30.4611H85.6187C84.0218 30.4611 82.7481 29.1932 82.4519 27.6196C82.0601 25.5386 81.3375 24.0436 80.2839 23.1345C79.0017 22.0282 77.4396 23.486 77.4396 25.1821V27.4611C77.4396 29.118 76.1002 30.4611 74.448 30.4611H70.3031C68.6509 30.4611 67.3115 29.118 67.3115 27.4611V10.5C67.3115 8.84315 68.6509 7.5 70.3031 7.5H74.448Z" fill="#29C4BA"/>
<ellipse cx="29.9165" cy="18" rx="17.9497" ry="18" fill="#BCEBE8"/>
<path fill-rule="evenodd" clip-rule="evenodd" d="M59.9586 13.3239C61.5162 15.6206 62.0354 17.8614 59.9586 19.5838C54.6311 24.2396 52.0375 25.0403 48.8451 25.4037C46.7582 25.6412 44.4901 25.3857 42.9621 25.2135C42.4993 25.1613 42.1045 25.1168 41.8031 25.096C39.212 24.9169 37.2429 22.4491 37.4048 19.5839C37.5668 16.7187 39.7985 14.5411 42.3895 14.7202C43.4588 14.7941 44.254 14.8872 44.9192 14.9651C46.0465 15.0972 47.2815 14.8434 48.3636 14.7202C49.6106 14.5782 52.072 13.3669 54.6311 11.2445C56.7079 9.52206 58.4009 11.0273 59.9586 13.3239Z" fill="#BCEBE8"/>
<ellipse cx="38.891" cy="15" rx="2.99161" ry="3" fill="#363636"/>
<ellipse cx="39.6395" cy="14.25" rx="0.747902" ry="0.75" fill="white"/>
<path d="M24.4516 6.16817C25.906 6.74411 26.3549 8.48138 25.6175 9.86418L22.9212 14.9205C22.2304 16.216 20.7058 16.79 19.2569 16.5727C18.4382 16.45 17.5818 16.3886 16.6877 16.3886C14.0534 16.3886 12.7363 17.0943 12.7363 18.5057C12.7363 19.1813 13.1039 19.7121 13.839 20.0981C14.5741 20.4721 15.6217 20.659 16.9817 20.659C17.6505 20.659 18.2853 20.6159 18.886 20.5296C20.5143 20.2958 22.316 20.8737 23.0501 22.3499L25.6795 27.6373C26.3807 29.0474 25.8759 30.7783 24.4093 31.3437C23.5432 31.6776 22.605 31.9703 21.5947 32.2219C19.5118 32.7406 17.5208 33 15.6217 33C10.8556 33 7.05734 31.6489 4.22705 28.9467C1.40902 26.2324 0 22.8968 0 18.94C0 14.754 1.47028 11.3038 4.41084 8.58952C7.35139 5.86317 11.0884 4.5 15.6217 4.5C17.5821 4.5 19.6037 4.7654 21.6866 5.29619C22.688 5.54413 23.6097 5.83479 24.4516 6.16817Z" fill="#29C4BA"/>
</svg>
