<svg width="86" height="90" viewBox="0 0 86 10" fill="none" xmlns="http://www.w3.org/2000/svg">
<g id="Group 2608573">
<g id="Group 2608571">
<circle id="Ellipse 236" cx="41.6665" cy="25" r="25" fill="#BCEBE8"/>
<path id="Vector 2 (Stroke)" fill-rule="evenodd" clip-rule="evenodd" d="M83.5087 18.5081C85.6782 21.6978 86.4013 24.81 83.5087 27.2024C76.0886 33.6687 72.4764 34.7808 68.03 35.2855C65.1234 35.6154 61.9645 35.2605 59.8363 35.0213C59.1918 34.9489 58.6418 34.8871 58.222 34.8582C54.6133 34.6094 51.8707 31.1818 52.0962 27.2024C52.3218 23.223 55.4301 20.1986 59.0388 20.4473C60.5282 20.55 61.6357 20.6793 62.5621 20.7875C64.1322 20.9709 65.8523 20.6184 67.3594 20.4473C69.0963 20.2502 72.5244 18.5678 76.0886 15.62C78.9813 13.2277 81.3393 15.3183 83.5087 18.5081Z" fill="#BCEBE8"/>
<ellipse id="Ellipse 237" cx="54.1669" cy="20.8346" rx="4.16667" ry="4.16667" fill="#363636"/>
<ellipse id="Ellipse 238" cx="55.2084" cy="19.7956" rx="1.04167" ry="1.04167" fill="white"/>
</g>
<path id="C" d="M34.0558 8.5708C36.0815 9.37072 36.7067 11.7836 35.6797 13.7042L31.9243 20.7268C30.9621 22.5261 28.8387 23.3234 26.8208 23.0216C25.6805 22.8511 24.4876 22.7658 23.2423 22.7658C19.5734 22.7658 17.7389 23.746 17.7389 25.7063C17.7389 26.6446 18.2509 27.3818 19.2747 27.9179C20.2986 28.4373 21.7577 28.697 23.6519 28.697C24.5834 28.697 25.4675 28.6371 26.3041 28.5173C28.572 28.1925 31.0814 28.9952 32.1039 31.0455L35.766 38.3891C36.7426 40.3475 36.0396 42.7515 33.9969 43.5368C32.7906 44.0005 31.4839 44.4071 30.0768 44.7565C27.1758 45.477 24.4027 45.8372 21.7577 45.8372C15.1195 45.8372 9.82935 43.9607 5.88737 40.2076C1.96246 36.4378 0 31.8051 0 26.3095C0 20.4955 2.04778 15.7036 6.14334 11.9338C10.2389 8.1472 15.4437 6.25391 21.7577 6.25391C24.4881 6.25391 27.3038 6.62251 30.2048 7.35973C31.5996 7.70409 32.8832 8.10778 34.0558 8.5708Z" fill="#29C4BA"/>
</g>
 <animateTransform
    attributeName="transform"
    attributeType="XML"
    type="translate"
    values="0 0; 0 -20; 0 0"
    dur="1.2s"
    repeatCount="indefinite"
  />
</svg>

