<svg width="18" height="18" viewBox="0 0 18 18" fill="none" xmlns="http://www.w3.org/2000/svg">
<path d="M13.6051 4.5C14.3523 4.5 14.9581 5.10576 14.9581 5.853V12.4796C14.9581 12.9927 14.5422 13.4086 14.0291 13.4086C13.516 13.4086 13.1001 12.9927 13.1001 12.4796V6.2978C13.1001 6.27669 13.083 6.25957 13.0619 6.25957C13.0547 6.25957 13.0477 6.26159 13.0416 6.2654L12.072 6.87282C11.6093 7.16275 11.0083 6.83009 11.0083 6.284C11.0083 6.04652 11.1296 5.82549 11.3299 5.69793L12.8783 4.71179C13.0955 4.57347 13.3476 4.5 13.6051 4.5Z" fill="#505050"/>
<rect x="3" y="4.5" width="1.8" height="9" rx="0.9" fill="#505050"/>
<rect x="8.39941" y="4.5" width="1.8" height="9" rx="0.9" fill="#505050"/>
<rect x="3" y="8.09961" width="7.2" height="1.8" rx="0.9" fill="#505050"/>
</svg>
