<svg width="18" height="18" viewBox="0 0 18 18" fill="none" xmlns="http://www.w3.org/2000/svg">
<path fill-rule="evenodd" clip-rule="evenodd" d="M3.75 7.5C3.75 7.08579 4.08579 6.75 4.5 6.75H13.5C13.9142 6.75 14.25 7.08579 14.25 7.5C14.25 7.91421 13.9142 8.25 13.5 8.25H4.5C4.08579 8.25 3.75 7.91421 3.75 7.5Z" fill="#505050"/>
<path fill-rule="evenodd" clip-rule="evenodd" d="M1.5 4.5C1.5 4.08579 1.83579 3.75 2.25 3.75H15.75C16.1642 3.75 16.5 4.08579 16.5 4.5C16.5 4.91421 16.1642 5.25 15.75 5.25H2.25C1.83579 5.25 1.5 4.91421 1.5 4.5Z" fill="#505050"/>
<path fill-rule="evenodd" clip-rule="evenodd" d="M1.5 10.5C1.5 10.0858 1.83579 9.75 2.25 9.75H15.75C16.1642 9.75 16.5 10.0858 16.5 10.5C16.5 10.9142 16.1642 11.25 15.75 11.25H2.25C1.83579 11.25 1.5 10.9142 1.5 10.5Z" fill="#505050"/>
<path fill-rule="evenodd" clip-rule="evenodd" d="M3.75 13.5C3.75 13.0858 4.08579 12.75 4.5 12.75H13.5C13.9142 12.75 14.25 13.0858 14.25 13.5C14.25 13.9142 13.9142 14.25 13.5 14.25H4.5C4.08579 14.25 3.75 13.9142 3.75 13.5Z" fill="#505050"/>
</svg>
