<svg width="18" height="18" viewBox="0 0 18 18" fill="none" xmlns="http://www.w3.org/2000/svg">
<path fill-rule="evenodd" clip-rule="evenodd" d="M4.5 4.5C4.5 4.08579 4.83579 3.75 5.25 3.75H9.75C10.5456 3.75 11.3087 4.06607 11.8713 4.62868C12.4339 5.19129 12.75 5.95435 12.75 6.75C12.75 7.54565 12.4339 8.30871 11.8713 8.87132C11.3087 9.43393 10.5456 9.75 9.75 9.75H5.25C4.83579 9.75 4.5 9.41421 4.5 9V4.5ZM6 5.25V8.25H9.75C10.1478 8.25 10.5294 8.09196 10.8107 7.81066C11.092 7.52936 11.25 7.14782 11.25 6.75C11.25 6.35218 11.092 5.97064 10.8107 5.68934C10.5294 5.40804 10.1478 5.25 9.75 5.25H6Z" fill="#505050"/>
<path fill-rule="evenodd" clip-rule="evenodd" d="M4.3125 4.5C4.3125 3.98223 4.73223 3.5625 5.25 3.5625H9.75C10.5954 3.5625 11.4061 3.89832 12.0039 4.4961C12.6017 5.09387 12.9375 5.90462 12.9375 6.75C12.9375 7.59538 12.6017 8.40613 12.0039 9.0039C11.4061 9.60168 10.5954 9.9375 9.75 9.9375H5.25C4.73223 9.9375 4.3125 9.51777 4.3125 9V4.5ZM5.25 3.9375C4.93934 3.9375 4.6875 4.18934 4.6875 4.5V9C4.6875 9.31066 4.93934 9.5625 5.25 9.5625H9.75C10.4959 9.5625 11.2113 9.26618 11.7387 8.73874C12.2662 8.21129 12.5625 7.49592 12.5625 6.75C12.5625 6.00408 12.2662 5.28871 11.7387 4.76126C11.2113 4.23382 10.4959 3.9375 9.75 3.9375H5.25ZM5.8125 5.25C5.8125 5.14645 5.89645 5.0625 6 5.0625H9.75C10.1976 5.0625 10.6268 5.24029 10.9432 5.55676C11.2597 5.87323 11.4375 6.30245 11.4375 6.75C11.4375 7.19755 11.2597 7.62678 10.9432 7.94324C10.6268 8.25971 10.1976 8.4375 9.75 8.4375H6C5.89645 8.4375 5.8125 8.35355 5.8125 8.25V5.25ZM6.1875 5.4375V8.0625H9.75C10.0981 8.0625 10.4319 7.92422 10.6781 7.67808C10.9242 7.43194 11.0625 7.0981 11.0625 6.75C11.0625 6.4019 10.9242 6.06806 10.6781 5.82192C10.4319 5.57578 10.0981 5.4375 9.75 5.4375H6.1875Z" fill="#505050"/>
<path fill-rule="evenodd" clip-rule="evenodd" d="M4.5 9C4.5 8.58579 4.83579 8.25 5.25 8.25H10.3125C11.1081 8.25 11.8712 8.56607 12.4338 9.12868C12.9964 9.69129 13.3125 10.4544 13.3125 11.25C13.3125 12.0457 12.9964 12.8087 12.4338 13.3713C11.8712 13.9339 11.1082 14.25 10.3125 14.25H5.25C4.83579 14.25 4.5 13.9142 4.5 13.5V9ZM6 9.75V12.75H10.3125C10.7103 12.75 11.0919 12.592 11.3732 12.3107C11.6545 12.0294 11.8125 11.6478 11.8125 11.25C11.8125 10.8522 11.6545 10.4706 11.3732 10.1893C11.0919 9.90804 10.7103 9.75 10.3125 9.75H6Z" fill="#505050"/>
<path fill-rule="evenodd" clip-rule="evenodd" d="M4.3125 9C4.3125 8.48223 4.73223 8.0625 5.25 8.0625H10.3125C11.1579 8.0625 11.9686 8.39832 12.5664 8.9961C13.1642 9.59387 13.5 10.4046 13.5 11.25C13.5 12.0954 13.1642 12.9061 12.5664 13.5039C11.9686 14.1017 11.1579 14.4375 10.3125 14.4375H5.25C4.73223 14.4375 4.3125 14.0178 4.3125 13.5V9ZM5.25 8.4375C4.93934 8.4375 4.6875 8.68934 4.6875 9V13.5C4.6875 13.8107 4.93934 14.0625 5.25 14.0625H10.3125C11.0584 14.0625 11.7738 13.7662 12.3012 13.2387C12.8287 12.7113 13.125 11.9959 13.125 11.25C13.125 10.5041 12.8287 9.78871 12.3012 9.26126C11.7738 8.73382 11.0584 8.4375 10.3125 8.4375H5.25ZM5.8125 9.75C5.8125 9.64645 5.89645 9.5625 6 9.5625H10.3125C10.7601 9.5625 11.1893 9.74029 11.5057 10.0568C11.8222 10.3732 12 10.8024 12 11.25C12 11.6976 11.8222 12.1268 11.5057 12.4432C11.1893 12.7597 10.7601 12.9375 10.3125 12.9375H6C5.89645 12.9375 5.8125 12.8536 5.8125 12.75V9.75ZM6.1875 9.9375V12.5625H10.3125C10.6606 12.5625 10.9944 12.4242 11.2406 12.1781C11.4867 11.9319 11.625 11.5981 11.625 11.25C11.625 10.9019 11.4867 10.5681 11.2406 10.3219C10.9944 10.0758 10.6606 9.9375 10.3125 9.9375H6.1875Z" fill="#505050"/>
</svg>
