<svg width="18" height="18" viewBox="0 0 18 18" fill="none" xmlns="http://www.w3.org/2000/svg">
<rect x="1.5" y="4.5" width="1.79369" height="8.96847" rx="0.896847" fill="#505050"/>
<rect x="6.8811" y="4.5" width="1.79369" height="8.96847" rx="0.896847" fill="#505050"/>
<rect x="1.5" y="8.08789" width="7.17478" height="1.79369" rx="0.896847" fill="#505050"/>
<path d="M10.5798 13.5C10.0689 13.5 9.65343 13.0883 9.64874 12.5774C9.64633 12.3139 9.75568 12.0617 9.94969 11.8834L12.833 9.23297C13.6667 8.43597 14.1082 7.9455 14.1082 7.24659C14.1082 6.46185 13.5073 5.97139 12.6981 5.97139C12.1908 5.97139 11.7924 6.16656 11.5582 6.50996C11.2845 6.91139 10.9309 7.34469 10.445 7.34469C9.96151 7.34469 9.55137 6.94599 9.68357 6.48093C10.0344 5.24677 11.1794 4.5 12.7226 4.5C14.6231 4.5 15.8861 5.57902 15.8861 7.12398C15.8861 8.12943 15.3956 8.96322 13.5687 10.6185L12.2303 11.9204C12.2236 11.9269 12.2199 11.9358 12.2199 11.9451C12.2199 11.9641 12.2353 11.9796 12.2544 11.9796H15.2485C15.6683 11.9796 16.0087 12.3199 16.0087 12.7398C16.0087 13.1596 15.6683 13.5 15.2485 13.5H10.5798Z" fill="#505050"/>
</svg>
