<svg width="18" height="18" viewBox="0 0 18 18" fill="none" xmlns="http://www.w3.org/2000/svg">
<rect x="1.5" y="4.5" width="1.76959" height="8.84793" rx="0.884793" fill="#505050"/>
<rect x="6.80884" y="4.5" width="1.76958" height="8.84793" rx="0.884792" fill="#505050"/>
<rect x="1.5" y="8.03906" width="7.07834" height="1.76959" rx="0.884793" fill="#505050"/>
<path d="M12.8016 13.5C11.2983 13.5 10.1275 12.8497 9.67048 11.8378C9.45472 11.3601 9.89454 10.9113 10.4187 10.9113C10.914 10.9113 11.3166 11.3593 11.7063 11.6652C11.9769 11.8776 12.3647 12 12.8137 12C13.6847 12 14.3137 11.504 14.3016 10.8024C14.3137 10.0887 13.6726 9.58065 12.6443 9.58065H12.5052C12.1344 9.58065 11.8339 9.28006 11.8339 8.90927C11.8339 8.53849 12.1344 8.2379 12.5052 8.2379H12.6443C13.5032 8.2379 14.1081 7.76613 14.1081 7.07661C14.1081 6.41129 13.6 5.95161 12.8258 5.95161C12.3998 5.95161 12.0141 6.08347 11.7493 6.31293C11.3915 6.62289 11.0114 7.05242 10.5381 7.05242C10.0468 7.05242 9.63364 6.63538 9.82264 6.18191C10.2505 5.1554 11.4048 4.5 12.8258 4.5C14.6524 4.5 15.8742 5.57661 15.8621 6.96774C15.874 7.93588 15.201 8.6324 14.2398 8.81226C14.2197 8.81602 14.2048 8.83349 14.2048 8.85394C14.2048 8.87517 14.221 8.89308 14.242 8.89589C15.5009 9.06369 16.2007 9.84525 16.1887 10.9234C16.2008 12.4234 14.7734 13.5 12.8016 13.5Z" fill="#505050"/>
</svg>
