<svg width="18" height="18" viewBox="0 0 18 18" fill="none" xmlns="http://www.w3.org/2000/svg">
<path fill-rule="evenodd" clip-rule="evenodd" d="M4.8 4.2C4.46863 4.2 4.2 4.46863 4.2 4.8V13.2C4.2 13.5314 4.46863 13.8 4.8 13.8H13.2C13.5314 13.8 13.8 13.5314 13.8 13.2V4.8C13.8 4.46863 13.5314 4.2 13.2 4.2H4.8ZM3 4.8C3 3.80589 3.80589 3 4.8 3H13.2C14.1941 3 15 3.80589 15 4.8V13.2C15 14.1941 14.1941 15 13.2 15H4.8C3.80589 15 3 14.1941 3 13.2V4.8Z" fill="#505050"/>
<path fill-rule="evenodd" clip-rule="evenodd" d="M2.8125 4.8C2.8125 3.70233 3.70233 2.8125 4.8 2.8125H13.2C14.2977 2.8125 15.1875 3.70233 15.1875 4.8V13.2C15.1875 14.2977 14.2977 15.1875 13.2 15.1875H4.8C3.70233 15.1875 2.8125 14.2977 2.8125 13.2V4.8ZM4.8 3.1875C3.90944 3.1875 3.1875 3.90944 3.1875 4.8V13.2C3.1875 14.0906 3.90944 14.8125 4.8 14.8125H13.2C14.0906 14.8125 14.8125 14.0906 14.8125 13.2V4.8C14.8125 3.90944 14.0906 3.1875 13.2 3.1875H4.8ZM4.8 4.3875C4.57218 4.3875 4.3875 4.57218 4.3875 4.8V13.2C4.3875 13.4278 4.57218 13.6125 4.8 13.6125H13.2C13.4278 13.6125 13.6125 13.4278 13.6125 13.2V4.8C13.6125 4.57218 13.4278 4.3875 13.2 4.3875H4.8ZM4.0125 4.8C4.0125 4.36508 4.36508 4.0125 4.8 4.0125H13.2C13.6349 4.0125 13.9875 4.36508 13.9875 4.8V13.2C13.9875 13.6349 13.6349 13.9875 13.2 13.9875H4.8C4.36508 13.9875 4.0125 13.6349 4.0125 13.2V4.8Z" fill="#505050"/>
<path fill-rule="evenodd" clip-rule="evenodd" d="M6.90039 6.60039C6.73471 6.60039 6.60039 6.7347 6.60039 6.90039C6.60039 7.06608 6.73471 7.20039 6.90039 7.20039C7.06608 7.20039 7.20039 7.06608 7.20039 6.90039C7.20039 6.7347 7.06608 6.60039 6.90039 6.60039ZM5.40039 6.90039C5.40039 6.07196 6.07196 5.40039 6.90039 5.40039C7.72882 5.40039 8.40039 6.07196 8.40039 6.90039C8.40039 7.72882 7.72882 8.40039 6.90039 8.40039C6.07196 8.40039 5.40039 7.72882 5.40039 6.90039Z" fill="#505050"/>
<path fill-rule="evenodd" clip-rule="evenodd" d="M5.21289 6.90039C5.21289 5.96841 5.96841 5.21289 6.90039 5.21289C7.83237 5.21289 8.58789 5.96841 8.58789 6.90039C8.58789 7.83237 7.83237 8.58789 6.90039 8.58789C5.96841 8.58789 5.21289 7.83237 5.21289 6.90039ZM6.90039 5.58789C6.17552 5.58789 5.58789 6.17552 5.58789 6.90039C5.58789 7.62526 6.17552 8.21289 6.90039 8.21289C7.62526 8.21289 8.21289 7.62526 8.21289 6.90039C8.21289 6.17552 7.62526 5.58789 6.90039 5.58789ZM6.90039 6.78789C6.83826 6.78789 6.78789 6.83826 6.78789 6.90039C6.78789 6.96252 6.83826 7.01289 6.90039 7.01289C6.96252 7.01289 7.01289 6.96252 7.01289 6.90039C7.01289 6.83826 6.96252 6.78789 6.90039 6.78789ZM6.41289 6.90039C6.41289 6.63115 6.63115 6.41289 6.90039 6.41289C7.16963 6.41289 7.38789 6.63115 7.38789 6.90039C7.38789 7.16963 7.16963 7.38789 6.90039 7.38789C6.63115 7.38789 6.41289 7.16963 6.41289 6.90039Z" fill="#505050"/>
<path fill-rule="evenodd" clip-rule="evenodd" d="M10.9762 7.37495C11.2105 7.14064 11.5904 7.14064 11.8247 7.37495L14.8247 10.375C15.059 10.6093 15.059 10.9892 14.8247 11.2235C14.5904 11.4578 14.2105 11.4578 13.9762 11.2235L11.4004 8.64775L5.2247 14.8235C4.99039 15.0578 4.61049 15.0578 4.37618 14.8235C4.14186 14.5892 4.14186 14.2093 4.37618 13.975L10.9762 7.37495Z" fill="#505050"/>
<path fill-rule="evenodd" clip-rule="evenodd" d="M10.8436 7.24237C11.1511 6.93483 11.6497 6.93483 11.9573 7.24237L14.9573 10.2424C15.2648 10.5499 15.2648 11.0485 14.9573 11.3561C14.6497 11.6636 14.1511 11.6636 13.8436 11.3561L11.4004 8.91291L5.35729 14.9561C5.04975 15.2636 4.55113 15.2636 4.24359 14.9561C3.93605 14.6485 3.93605 14.1499 4.24359 13.8424L10.8436 7.24237ZM11.6921 7.50754C11.531 7.34645 11.2698 7.34645 11.1088 7.50754L4.50876 14.1075C4.34767 14.2686 4.34767 14.5298 4.50876 14.6909C4.66985 14.852 4.93103 14.852 5.09212 14.6909L11.2679 8.51516C11.3411 8.44194 11.4598 8.44194 11.533 8.51516L14.1088 11.0909C14.2698 11.252 14.531 11.252 14.6921 11.0909C14.8532 10.9298 14.8532 10.6686 14.6921 10.5075L11.6921 7.50754Z" fill="#505050"/>
</svg>
