<svg width="18" height="18" viewBox="0 0 18 18" fill="none" xmlns="http://www.w3.org/2000/svg">
<path fill-rule="evenodd" clip-rule="evenodd" d="M7.3125 4.5C7.3125 4.08579 7.64829 3.75 8.0625 3.75H13.125C13.5392 3.75 13.875 4.08579 13.875 4.5C13.875 4.91421 13.5392 5.25 13.125 5.25H8.0625C7.64829 5.25 7.3125 4.91421 7.3125 4.5Z" fill="#505050"/>
<path fill-rule="evenodd" clip-rule="evenodd" d="M7.125 4.5C7.125 3.98223 7.54473 3.5625 8.0625 3.5625H13.125C13.6428 3.5625 14.0625 3.98223 14.0625 4.5C14.0625 5.01777 13.6428 5.4375 13.125 5.4375H8.0625C7.54473 5.4375 7.125 5.01777 7.125 4.5ZM8.0625 3.9375C7.75184 3.9375 7.5 4.18934 7.5 4.5C7.5 4.81066 7.75184 5.0625 8.0625 5.0625H13.125C13.4357 5.0625 13.6875 4.81066 13.6875 4.5C13.6875 4.18934 13.4357 3.9375 13.125 3.9375H8.0625Z" fill="#505050"/>
<path fill-rule="evenodd" clip-rule="evenodd" d="M4.5 13.5C4.5 13.0858 4.83579 12.75 5.25 12.75H10.3125C10.7267 12.75 11.0625 13.0858 11.0625 13.5C11.0625 13.9142 10.7267 14.25 10.3125 14.25H5.25C4.83579 14.25 4.5 13.9142 4.5 13.5Z" fill="#505050"/>
<path fill-rule="evenodd" clip-rule="evenodd" d="M4.3125 13.5C4.3125 12.9822 4.73223 12.5625 5.25 12.5625H10.3125C10.8303 12.5625 11.25 12.9822 11.25 13.5C11.25 14.0178 10.8303 14.4375 10.3125 14.4375H5.25C4.73223 14.4375 4.3125 14.0178 4.3125 13.5ZM5.25 12.9375C4.93934 12.9375 4.6875 13.1893 4.6875 13.5C4.6875 13.8107 4.93934 14.0625 5.25 14.0625H10.3125C10.6232 14.0625 10.875 13.8107 10.875 13.5C10.875 13.1893 10.6232 12.9375 10.3125 12.9375H5.25Z" fill="#505050"/>
<path fill-rule="evenodd" clip-rule="evenodd" d="M11.1385 3.79796C11.5264 3.9434 11.7229 4.37571 11.5774 4.76355L8.20245 13.7635C8.05701 14.1514 7.6247 14.3479 7.23686 14.2024C6.84902 14.057 6.65252 13.6247 6.79796 13.2369L10.173 4.23686C10.3184 3.84902 10.7507 3.65252 11.1385 3.79796Z" fill="#505050"/>
<path fill-rule="evenodd" clip-rule="evenodd" d="M9.99745 4.17108C10.1792 3.68628 10.7196 3.44065 11.2044 3.62245C11.6892 3.80425 11.9349 4.34463 11.7531 4.82943L8.37806 13.8294C8.19626 14.3142 7.65588 14.5599 7.17108 14.3781C6.68628 14.1963 6.44065 13.6559 6.62245 13.1711L9.99745 4.17108ZM11.0728 3.97357C10.7819 3.86449 10.4576 4.01187 10.3486 4.30275L6.97357 13.3027C6.86449 13.5936 7.01187 13.9179 7.30275 14.0269C7.59363 14.136 7.91786 13.9886 8.02694 13.6978L11.4019 4.69776C11.511 4.40688 11.3636 4.08265 11.0728 3.97357Z" fill="#505050"/>
</svg>
