<svg width="18" height="18" viewBox="0 0 18 18" fill="none" xmlns="http://www.w3.org/2000/svg">
<path fill-rule="evenodd" clip-rule="evenodd" d="M9.64939 4.00004C10.3213 3.3511 11.2212 2.99202 12.1553 3.00013C13.0893 3.00825 13.9829 3.38292 14.6434 4.04343C15.3039 4.70395 15.6786 5.59747 15.6867 6.53154C15.6948 7.46562 15.3357 8.36552 14.6868 9.03741L14.6776 9.04671L12.9902 10.7341C12.6291 11.0954 12.1944 11.3748 11.7158 11.5533C11.2372 11.7319 10.7258 11.8054 10.2162 11.7689C9.70668 11.7324 9.21094 11.5868 8.76264 11.3418C8.31434 11.0969 7.92396 10.7584 7.61798 10.3494C7.36987 10.0177 7.43763 9.54766 7.76932 9.29955C8.101 9.05145 8.57102 9.11921 8.81912 9.45089C8.99627 9.68772 9.22228 9.88368 9.48183 10.0255C9.74137 10.1673 10.0284 10.2516 10.3234 10.2727C10.6184 10.2939 10.9145 10.2513 11.1916 10.1479C11.4687 10.0446 11.7203 9.88281 11.9294 9.67364L13.612 7.99101C13.9851 7.60249 14.1914 7.08335 14.1867 6.54458C14.182 6.0038 13.9651 5.4865 13.5827 5.10409C13.2003 4.72169 12.683 4.50478 12.1422 4.50008C11.6031 4.49539 11.0837 4.70199 10.6951 5.07549L9.73171 6.03325C9.43796 6.32529 8.96309 6.3239 8.67105 6.03016C8.37901 5.73641 8.3804 5.26154 8.67414 4.9695L9.64164 4.00763L9.64939 4.00004Z" fill="#505050"/>
<path fill-rule="evenodd" clip-rule="evenodd" d="M9.51915 3.86517C10.2264 3.18208 11.1737 2.8041 12.1569 2.81264C13.1401 2.82119 14.0807 3.21557 14.776 3.91085C15.4712 4.60613 15.8656 5.54668 15.8742 6.52991C15.8827 7.51315 15.5047 8.46041 14.8216 9.16767L14.8205 9.16884L14.8102 9.17929L13.1228 10.8667C13.1228 10.8667 13.1229 10.8667 13.1228 10.8667C12.7427 11.247 12.2852 11.5411 11.7814 11.729C11.2775 11.9169 10.7392 11.9943 10.2028 11.9559C9.66648 11.9175 9.14465 11.7642 8.67276 11.5064C8.20086 11.2486 7.78993 10.8923 7.46784 10.4617C7.15771 10.0471 7.24241 9.45954 7.65702 9.14941C8.07163 8.83928 8.65915 8.92398 8.96928 9.33858C9.13032 9.55388 9.33579 9.73203 9.57174 9.86094C9.80768 9.98985 10.0686 10.0665 10.3368 10.0857C10.605 10.1049 10.8741 10.0662 11.126 9.97225C11.3779 9.87828 11.6067 9.73124 11.7968 9.54108L13.4781 7.8598C13.8164 7.50675 14.0035 7.03538 13.9992 6.54621C13.995 6.05459 13.7978 5.58432 13.4501 5.23667C13.1025 4.88903 12.6322 4.69184 12.1406 4.68757C11.651 4.68332 11.1793 4.87073 10.8261 5.2096L9.86391 6.16622C9.49673 6.53127 8.90314 6.52954 8.53809 6.16235C8.17305 5.79517 8.17478 5.20158 8.54196 4.83653L9.51042 3.87371L9.51915 3.86517ZM9.78014 4.13444L9.77337 4.14107L8.80635 5.10247C8.58604 5.3215 8.585 5.67765 8.80403 5.89796C9.02306 6.11827 9.37921 6.11931 9.59952 5.90028L10.5651 4.94029C10.9891 4.53283 11.5557 4.30747 12.1439 4.31258C12.7338 4.31771 13.2981 4.55434 13.7153 4.97151C14.1325 5.38868 14.3691 5.95301 14.3742 6.54295C14.3793 7.1307 14.1542 7.69703 13.7473 8.12088L13.7446 8.12362L12.062 9.8062C12.062 9.80621 12.062 9.80619 12.062 9.8062C11.8339 10.0344 11.5594 10.2108 11.2571 10.3236C10.9548 10.4364 10.6318 10.4828 10.31 10.4598C9.98817 10.4367 9.67508 10.3447 9.39194 10.19C9.1088 10.0353 8.86225 9.82156 8.66899 9.5632C8.48291 9.31444 8.1304 9.26362 7.88164 9.4497C7.63287 9.63578 7.58205 9.98829 7.76813 10.2371C8.05801 10.6246 8.42785 10.9453 8.85255 11.1773C9.27726 11.4093 9.7469 11.5473 10.2296 11.5819C10.7123 11.6164 11.1969 11.5468 11.6503 11.3777C12.1037 11.2085 12.5155 10.9438 12.8576 10.6016L14.5439 8.91528L14.5451 8.91412L14.5519 8.90715C14.5521 8.90696 14.5523 8.90677 14.5525 8.90657C15.1669 8.2701 15.5069 7.41782 15.4992 6.53317C15.4915 5.64826 15.1366 4.80177 14.5108 4.17601C13.885 3.55026 13.0386 3.19532 12.1536 3.18763C11.2689 3.17994 10.4166 3.51995 9.78014 4.13444Z" fill="#505050"/>
<path fill-rule="evenodd" clip-rule="evenodd" d="M6.97099 7.12115C7.44962 6.94261 7.96105 6.86909 8.47059 6.90559C8.98013 6.94208 9.47586 7.08773 9.92416 7.33265C10.3725 7.57758 10.7628 7.91606 11.0688 8.32512C11.3169 8.65681 11.2492 9.12683 10.9175 9.37493C10.5858 9.62304 10.1158 9.55528 9.86768 9.22359C9.69053 8.98676 9.46452 8.7908 9.20498 8.649C8.94543 8.5072 8.65843 8.42288 8.36343 8.40175C8.06844 8.38063 7.77235 8.42319 7.49525 8.52656C7.21815 8.62992 6.96652 8.79168 6.75743 9.00084L5.0748 10.6835C4.70173 11.072 4.4954 11.5911 4.50008 12.1299C4.50478 12.6707 4.72169 13.188 5.10409 13.5704C5.4865 13.9528 6.0038 14.1697 6.54458 14.1744C7.08335 14.1791 7.60249 13.9728 7.99101 13.5997L8.94792 12.6428C9.24081 12.3499 9.71569 12.3499 10.0086 12.6428C10.3015 12.9357 10.3015 13.4105 10.0086 13.7034L9.04671 14.6653L9.03741 14.6744C8.36552 15.3234 7.46562 15.6825 6.53154 15.6743C5.59747 15.6662 4.70395 15.2916 4.04343 14.6311C3.38292 13.9705 3.00825 13.077 3.00013 12.1429C2.99202 11.2089 3.3511 10.309 4.00004 9.63707L4.00917 9.62778L5.69658 7.94037C5.69654 7.94041 5.69661 7.94034 5.69658 7.94037C6.05771 7.57913 6.49241 7.29968 6.97099 7.12115Z" fill="#505050"/>
<path fill-rule="evenodd" clip-rule="evenodd" d="M6.90546 6.94548C7.40928 6.75754 7.94762 6.68015 8.48398 6.71857C9.02034 6.75698 9.54216 6.91029 10.0141 7.16811C10.486 7.42593 10.8969 7.78222 11.219 8.21281C11.5291 8.62742 11.4444 9.21494 11.0298 9.52507C10.6152 9.83521 10.0277 9.75051 9.71753 9.3359C9.55649 9.1206 9.35103 8.94246 9.11508 8.81355C8.87913 8.68464 8.61822 8.60798 8.35004 8.58877C8.08186 8.56957 7.81269 8.60826 7.56078 8.70223C7.30887 8.7962 7.08012 8.94325 6.89003 9.1334L5.20876 10.8147C4.87042 11.1677 4.68332 11.6391 4.68757 12.1283C4.69184 12.6199 4.88903 13.0902 5.23668 13.4378C5.58432 13.7854 6.05459 13.9826 6.54621 13.9869C7.03538 13.9912 7.50675 13.8041 7.8598 13.4657L8.81534 12.5102C9.18146 12.1441 9.77505 12.1441 10.1412 12.5102C10.5073 12.8763 10.5073 13.4699 10.1412 13.836L9.17814 14.799L9.16767 14.8093C8.46042 15.4924 7.51315 15.8704 6.52991 15.8618C5.54668 15.8533 4.60613 15.4589 3.91085 14.7636C3.21557 14.0684 2.82119 13.1278 2.81264 12.1446C2.8041 11.1613 3.18208 10.2141 3.86517 9.50682L3.8663 9.50564L3.87658 9.49519L5.5639 7.80788C5.56389 7.80789 5.56391 7.80788 5.5639 7.80788C5.94404 7.42765 6.40169 7.1334 6.90546 6.94548ZM5.82891 8.07271C5.82889 8.0727 5.82893 8.07272 5.82891 8.07271V8.07271ZM5.82891 8.07271C5.82889 8.0727 5.82893 8.07272 5.82891 8.07271L4.14234 9.75978L4.13434 9.76791C3.51991 10.4044 3.17994 11.2567 3.18763 12.1413C3.19532 13.0262 3.55026 13.8727 4.17601 14.4985C4.80177 15.1242 5.64826 15.4792 6.53317 15.4869C7.41781 15.4945 8.27009 15.1546 8.90656 14.5402C8.90675 14.54 8.90695 14.5398 8.90715 14.5396L8.91412 14.5327L8.91528 14.5316L9.876 13.5709C10.0957 13.3512 10.0957 12.995 9.876 12.7754C9.65633 12.5557 9.30017 12.5557 9.0805 12.7754L8.1209 13.735C7.69706 14.1419 7.1307 14.367 6.54295 14.3619C5.95301 14.3568 5.38868 14.1201 4.97151 13.703C4.55434 13.2858 4.31771 12.7215 4.31259 12.1315C4.30748 11.5438 4.53257 10.9775 4.93955 10.5536L4.94219 10.5509L6.62482 8.86828C6.62481 8.86829 6.62483 8.86827 6.62482 8.86828C6.85292 8.64011 7.12744 8.46364 7.42972 8.35088C7.73201 8.23812 8.05501 8.19168 8.37683 8.21473C8.69864 8.23778 9.01174 8.32977 9.29487 8.48446C9.57801 8.63915 9.82457 8.85293 10.0178 9.11128C10.2039 9.36005 10.5564 9.41087 10.8052 9.22479C11.0539 9.03871 11.1048 8.6862 10.9187 8.43743C10.6288 8.0499 10.259 7.72923 9.83426 7.4972C9.40956 7.26516 8.93991 7.12718 8.45719 7.09261C7.97447 7.05804 7.48996 7.12768 7.03652 7.29683C6.58317 7.46594 6.17103 7.73052 5.82891 8.07271Z" fill="#505050"/>
</svg>
