<svg width="18" height="18" viewBox="0 0 18 18" fill="none" xmlns="http://www.w3.org/2000/svg">
<path d="M9.86483 7.42593C9.86483 6.82407 10.0748 6.31481 10.4946 5.89815C10.9145 5.46605 11.4276 5.25 12.0341 5.25C12.3451 5.25 12.6328 5.31944 12.8971 5.45833C13.177 5.58179 13.4103 5.75926 13.5969 5.99074C13.799 6.22222 13.9545 6.49228 14.0634 6.80092C14.1878 7.09414 14.25 7.41049 14.25 7.75C14.25 8.39815 14.1567 8.97685 13.9701 9.48611C13.799 9.99537 13.558 10.4506 13.247 10.8519C12.936 11.2531 12.5783 11.608 12.174 11.9167C11.9359 12.0985 11.6869 12.2696 11.4271 12.43C11.1188 12.6204 10.7204 12.5094 10.5312 12.2004C10.3226 11.8599 10.4505 11.4165 10.7789 11.1891C10.9956 11.0391 11.2041 10.8726 11.4043 10.6898C11.7543 10.3563 11.9909 10.0228 12.114 9.68936C12.1342 9.63471 12.0924 9.5787 12.0341 9.5787C11.4276 9.5787 10.9145 9.37037 10.4946 8.9537C10.0748 8.53704 9.86483 8.02778 9.86483 7.42593ZM4.5 7.42593C4.5 6.82407 4.70993 6.31481 5.12978 5.89815C5.54964 5.46605 6.0628 5.25 6.66926 5.25C6.98026 5.25 7.26794 5.31944 7.5323 5.45833C7.8122 5.58179 8.04545 5.75926 8.23206 5.99074C8.43421 6.22222 8.58971 6.49228 8.69856 6.80092C8.82297 7.09414 8.88517 7.41049 8.88517 7.75C8.88517 8.39815 8.79187 8.97685 8.60526 9.48611C8.43421 9.99537 8.19318 10.4506 7.88218 10.8519C7.57117 11.2531 7.21352 11.608 6.80921 11.9167C6.57102 12.0985 6.32204 12.2696 6.06226 12.43C5.75401 12.6204 5.35561 12.5094 5.16639 12.2004C4.95781 11.8599 5.0857 11.4165 5.41402 11.1891C5.63075 11.0391 5.83924 10.8726 6.03947 10.6898C6.38951 10.3563 6.62609 10.0228 6.7492 9.68936C6.76938 9.63471 6.72752 9.5787 6.66926 9.5787C6.0628 9.5787 5.54964 9.37037 5.12978 8.9537C4.70993 8.53704 4.5 8.02778 4.5 7.42593Z" fill="#505050"/>
</svg>
