<svg width="18" height="18" viewBox="0 0 18 18" fill="none" xmlns="http://www.w3.org/2000/svg">
<path fill-rule="evenodd" clip-rule="evenodd" d="M5.625 3C6.03921 3 6.375 3.33579 6.375 3.75V7.6875C6.375 8.38369 6.65156 9.05137 7.14384 9.54366C7.63613 10.0359 8.30381 10.3125 9 10.3125C9.69619 10.3125 10.3639 10.0359 10.8562 9.54366C11.3484 9.05137 11.625 8.38369 11.625 7.6875V3.75C11.625 3.33579 11.9608 3 12.375 3C12.7892 3 13.125 3.33579 13.125 3.75V7.6875C13.125 8.78152 12.6904 9.83073 11.9168 10.6043C11.1432 11.3779 10.094 11.8125 9 11.8125C7.90598 11.8125 6.85677 11.3779 6.08318 10.6043C5.3096 9.83073 4.875 8.78152 4.875 7.6875V3.75C4.875 3.33579 5.21079 3 5.625 3Z" fill="#505050"/>
<path fill-rule="evenodd" clip-rule="evenodd" d="M4.6875 3.75C4.6875 3.23223 5.10723 2.8125 5.625 2.8125C6.14277 2.8125 6.5625 3.23223 6.5625 3.75V7.6875C6.5625 8.33396 6.81931 8.95395 7.27643 9.41107C7.73355 9.86819 8.35353 10.125 9 10.125C9.64647 10.125 10.2665 9.86819 10.7236 9.41107C11.1807 8.95395 11.4375 8.33397 11.4375 7.6875V3.75C11.4375 3.23223 11.8572 2.8125 12.375 2.8125C12.8928 2.8125 13.3125 3.23223 13.3125 3.75V7.6875C13.3125 8.83125 12.8581 9.92815 12.0494 10.7369C11.2406 11.5456 10.1437 12 9 12C7.85625 12 6.75935 11.5456 5.9506 10.7369C5.14185 9.92815 4.6875 8.83125 4.6875 7.6875V3.75ZM5.625 3.1875C5.31434 3.1875 5.0625 3.43934 5.0625 3.75V7.6875C5.0625 8.73179 5.47734 9.73331 6.21577 10.4717C6.95419 11.2102 7.95571 11.625 9 11.625C10.0443 11.625 11.0458 11.2102 11.7842 10.4717C12.5227 9.73331 12.9375 8.73179 12.9375 7.6875V3.75C12.9375 3.43934 12.6857 3.1875 12.375 3.1875C12.0643 3.1875 11.8125 3.43934 11.8125 3.75V7.6875C11.8125 8.43342 11.5162 9.14879 10.9887 9.67624C10.4613 10.2037 9.74592 10.5 9 10.5C8.25408 10.5 7.53871 10.2037 7.01126 9.67624C6.48382 9.14879 6.1875 8.43342 6.1875 7.6875V3.75C6.1875 3.43934 5.93566 3.1875 5.625 3.1875Z" fill="#505050"/>
<path fill-rule="evenodd" clip-rule="evenodd" d="M3.75 13.875C3.75 13.4608 4.08579 13.125 4.5 13.125H13.5C13.9142 13.125 14.25 13.4608 14.25 13.875C14.25 14.2892 13.9142 14.625 13.5 14.625H4.5C4.08579 14.625 3.75 14.2892 3.75 13.875Z" fill="#505050"/>
<path fill-rule="evenodd" clip-rule="evenodd" d="M3.5625 13.875C3.5625 13.3572 3.98223 12.9375 4.5 12.9375H13.5C14.0178 12.9375 14.4375 13.3572 14.4375 13.875C14.4375 14.3928 14.0178 14.8125 13.5 14.8125H4.5C3.98223 14.8125 3.5625 14.3928 3.5625 13.875ZM4.5 13.3125C4.18934 13.3125 3.9375 13.5643 3.9375 13.875C3.9375 14.1857 4.18934 14.4375 4.5 14.4375H13.5C13.8107 14.4375 14.0625 14.1857 14.0625 13.875C14.0625 13.5643 13.8107 13.3125 13.5 13.3125H4.5Z" fill="#505050"/>
</svg>
