<svg width="12" height="12" viewBox="0 0 12 12" fill="none" xmlns="http://www.w3.org/2000/svg">
<path fill-rule="evenodd" clip-rule="evenodd" d="M6.79333 4.15008C6.48846 3.48122 5.53831 3.48122 5.23344 4.15008L4.13726 6.55503L3.21632 5.50252C2.69514 4.90689 1.71411 5.2755 1.71411 6.06696V9.78571C1.71411 10.2591 2.09787 10.6429 2.57125 10.6429H5.82517C5.88581 10.6429 5.94413 10.637 5.99983 10.6259C6.05552 10.637 6.11384 10.6429 6.17448 10.6429H9.4284C9.90178 10.6429 10.2855 10.2591 10.2855 9.78571V6.06696C10.2855 5.2755 9.30451 4.90689 8.78333 5.50252L7.88022 6.53465L6.79333 4.15008Z" fill="white"/>
<path d="M6.83329 1.83333C6.83329 2.29357 6.4602 2.66667 5.99996 2.66667C5.53972 2.66667 5.16663 2.29357 5.16663 1.83333C5.16663 1.3731 5.53972 1 5.99996 1C6.4602 1 6.83329 1.3731 6.83329 1.83333Z" fill="white"/>
<path d="M10.9999 3.5013C10.9999 3.96154 10.6268 4.33464 10.1666 4.33464C9.70635 4.33464 9.33325 3.96154 9.33325 3.5013C9.33325 3.04106 9.70635 2.66797 10.1666 2.66797C10.6268 2.66797 10.9999 3.04106 10.9999 3.5013Z" fill="white"/>
<path d="M2.66667 3.5013C2.66667 3.96154 2.29357 4.33464 1.83333 4.33464C1.3731 4.33464 1 3.96154 1 3.5013C1 3.04106 1.3731 2.66797 1.83333 2.66797C2.29357 2.66797 2.66667 3.04106 2.66667 3.5013Z" fill="white"/>
</svg>
