<svg width="100" height="100" viewBox="0 0 100 100" fill="none" xmlns="http://www.w3.org/2000/svg">
<g id="profile_default">
<rect id="Rectangle 171" width="100" height="100" rx="50" fill="#F1F8F7"/>
<g id="Group 270">
<path id="Vector" d="M66 68.1307V62.4561C66 59.4461 65.144 56.5594 63.6202 54.431C62.0965 52.3027 60.0299 51.1069 57.875 51.1069H41.625C39.4701 51.1069 37.4035 52.3027 35.8798 54.431C34.356 56.5594 33.5 59.4461 33.5 62.4561V68.1307" fill="#29C4BA"/>
<path id="Vector_2" d="M49.75 47.7524C54.2373 47.7524 57.875 44.1148 57.875 39.6274C57.875 35.1401 54.2373 31.5024 49.75 31.5024C45.2627 31.5024 41.625 35.1401 41.625 39.6274C41.625 44.1148 45.2627 47.7524 49.75 47.7524Z" fill="#29C4BA"/>
</g>
</g>
</svg>
