<svg width="36" height="36" viewBox="0 0 36 36" fill="none" xmlns="http://www.w3.org/2000/svg">
<rect width="36" height="36" rx="18" fill="#F1F8F7"/>
<path d="M23.7601 24.527V22.4842C23.7601 21.4006 23.4519 20.3613 22.9033 19.5951C22.3548 18.8289 21.6108 18.3984 20.8351 18.3984H14.9851C14.2093 18.3984 13.4653 18.8289 12.9168 19.5951C12.3682 20.3613 12.0601 21.4006 12.0601 22.4842V24.527" fill="#29C4BA"/>
<path d="M17.9099 17.1908C19.5253 17.1908 20.8349 15.8813 20.8349 14.2658C20.8349 12.6504 19.5253 11.3408 17.9099 11.3408C16.2944 11.3408 14.9849 12.6504 14.9849 14.2658C14.9849 15.8813 16.2944 17.1908 17.9099 17.1908Z" fill="#29C4BA"/>
</svg>
