<svg width="22" height="22" viewBox="0 0 22 22" fill="none" xmlns="http://www.w3.org/2000/svg">
<g id="Group 2608810">
<path id="Vector (Stroke)" fill-rule="evenodd" clip-rule="evenodd" d="M21 11C21 11.5523 20.5523 12 20 12L2 12C1.44772 12 1 11.5523 1 11C1 10.4477 1.44772 10 2 10L20 10C20.5523 10 21 10.4477 21 11Z" fill="#A8A8A8" stroke="#A8A8A8" stroke-width="1.5" stroke-linecap="round" stroke-linejoin="round"/>
<path id="Vector (Stroke)_2" fill-rule="evenodd" clip-rule="evenodd" d="M11.7071 20.7071C11.3166 21.0976 10.6834 21.0976 10.2929 20.7071L1.29289 11.7071C0.90237 11.3166 0.90237 10.6834 1.29289 10.2929L10.2929 1.29289C10.6834 0.902368 11.3166 0.902368 11.7071 1.29289C12.0976 1.68342 12.0976 2.31658 11.7071 2.70711L3.41421 11L11.7071 19.2929C12.0976 19.6834 12.0976 20.3166 11.7071 20.7071Z" fill="#A8A8A8" stroke="#A8A8A8" stroke-width="1.5" stroke-linecap="round" stroke-linejoin="round"/>
</g>
</svg>
