<svg width="24" height="24" viewBox="0 0 24 24" fill="none" xmlns="http://www.w3.org/2000/svg">
<path fill-rule="evenodd" clip-rule="evenodd" d="M9.63889 3.70398C6.24847 3.70398 3.5 6.61413 3.5 10.204C3.5 13.7469 6.17715 16.6278 9.50639 16.7025L11.6058 20.0715C11.7925 20.371 12.2075 20.371 12.3942 20.0715L14.4936 16.7025C17.8228 16.6278 20.5 13.7469 20.5 10.204C20.5 6.61413 17.7515 3.70398 14.3611 3.70398H9.63889Z" fill="white"/>
<path fill-rule="evenodd" clip-rule="evenodd" d="M10.2795 15.2195L12 17.9804L13.7205 15.2195L14.4636 15.2028C17.024 15.1454 19.0833 12.9292 19.0833 10.204C19.0833 7.44256 16.9691 5.20398 14.3611 5.20398H9.63889C7.03088 5.20398 4.91667 7.44256 4.91667 10.204C4.91667 12.9292 6.97604 15.1454 9.53638 15.2028L10.2795 15.2195ZM3.5 10.204C3.5 6.61413 6.24847 3.70398 9.63889 3.70398H14.3611C17.7515 3.70398 20.5 6.61413 20.5 10.204C20.5 13.7469 17.8228 16.6278 14.4936 16.7025L12.3942 20.0715C12.2075 20.371 11.7925 20.371 11.6058 20.0715L9.50639 16.7025C6.17715 16.6278 3.5 13.7469 3.5 10.204Z" fill="#A8A8A8"/>
</svg>
