<svg width="20" height="20" viewBox="0 0 20 20" fill="none" xmlns="http://www.w3.org/2000/svg">
<g id="Group 721">
<path id="Vector (Stroke)" fill-rule="evenodd" clip-rule="evenodd" d="M9.10248 18.7782C9.10248 18.1596 9.60392 17.6582 10.2225 17.6582L18.778 17.6582C19.3966 17.6582 19.898 18.1596 19.898 18.7782C19.898 19.3968 19.3966 19.8982 18.778 19.8982L10.2225 19.8982C9.60392 19.8982 9.10248 19.3968 9.10248 18.7782Z" fill="white"/>
<path id="Vector (Stroke)_2" fill-rule="evenodd" clip-rule="evenodd" d="M15.9262 2.78688C15.707 2.78688 15.4847 2.8779 15.3118 3.05973L3.63724 15.3334L3.18861 17.22L4.87706 16.7762L16.5406 4.51413C16.6267 4.42361 16.6978 4.31314 16.7472 4.18768C16.7966 4.06216 16.8227 3.92582 16.8227 3.78693C16.8227 3.64804 16.7966 3.5117 16.7472 3.38618C16.6978 3.26072 16.6267 3.15025 16.5406 3.05973C16.4546 2.96933 16.3556 2.90078 16.2507 2.85511C16.146 2.80952 16.0359 2.78688 15.9262 2.78688ZM13.6887 1.51592C14.2721 0.90258 15.0757 0.546875 15.9262 0.546875C16.3461 0.546875 16.7604 0.633904 17.145 0.801395C17.5295 0.968819 17.8751 1.21259 18.1636 1.51592C18.452 1.81913 18.678 2.17609 18.8313 2.56506C18.9845 2.95397 19.0627 3.369 19.0627 3.78693C19.0627 4.20486 18.9845 4.61989 18.8313 5.0088C18.678 5.39777 18.452 5.75473 18.1636 6.05794L6.28089 18.5505C6.13758 18.7011 5.95517 18.8089 5.75407 18.8618L1.9516 19.8612C1.57101 19.9612 1.16584 19.8542 0.884322 19.5792C0.602805 19.3043 0.486244 18.9017 0.577283 18.5189L1.5279 14.5213C1.57368 14.3288 1.66963 14.1518 1.806 14.0085L13.6887 1.51592Z" fill="white"/>
</g>
</svg>
