<svg width="9" height="13" viewBox="0 0 9 13" fill="none" xmlns="http://www.w3.org/2000/svg">
<g id="Group 2608949">
<path id="Vector (Stroke)" fill-rule="evenodd" clip-rule="evenodd" d="M4.47794 2.13195C3.97785 2.04804 3.46354 2.13997 3.0261 2.39146C2.58866 2.64294 2.25632 3.03775 2.08794 3.50596C1.89106 4.05344 1.27775 4.34114 0.718068 4.14855C0.158389 3.95595 -0.135716 3.35601 0.0611664 2.80853C0.397917 1.87211 1.0626 1.08249 1.93748 0.579519C2.81236 0.0765503 3.84099 -0.107307 4.84117 0.0605116C5.84135 0.22833 6.74854 0.736994 7.40206 1.49641C8.05546 2.25567 8.41313 3.2166 8.41176 4.20905C8.41128 5.81722 7.19241 6.87923 6.322 7.44685C5.85402 7.75204 5.39368 7.97644 5.05457 8.12387C4.88349 8.19825 4.73943 8.25469 4.63563 8.29338C4.58363 8.31275 4.54148 8.32777 4.5108 8.33844L4.47349 8.35122L4.4616 8.35519L4.45742 8.35657L4.45577 8.35711C4.45545 8.35722 4.45443 8.35755 4.11471 7.36063L4.45443 8.35755C3.89157 8.54108 3.2832 8.24352 3.09558 7.69294C2.90809 7.14272 3.21175 6.54803 3.77388 6.36408L3.77251 6.36453C3.77262 6.36449 3.77271 6.36447 3.77388 6.36408L3.79102 6.35819C3.80754 6.35245 3.83463 6.34283 3.87076 6.32937C3.9432 6.30238 4.05092 6.2603 4.18198 6.20332C4.44714 6.08804 4.7925 5.91838 5.13021 5.69814C5.87102 5.21503 6.26324 4.70108 6.26324 4.20809L6.26324 4.20653C6.26399 3.71019 6.08515 3.22961 5.75839 2.8499C5.43163 2.47019 4.97803 2.21586 4.47794 2.13195Z" fill="#DBDBDB"/>
<path id="Vector (Stroke)_2" fill-rule="evenodd" clip-rule="evenodd" d="M3.05882 11.8521C3.05882 11.2186 3.56982 10.7051 4.20017 10.7051H4.21159C4.84194 10.7051 5.35294 11.2186 5.35294 11.8521C5.35294 12.4856 4.84194 12.9992 4.21159 12.9992H4.20017C3.56982 12.9992 3.05882 12.4856 3.05882 11.8521Z" fill="#DBDBDB"/>
</g>
</svg>
