<svg width="14" height="16" viewBox="0 0 14 16" fill="none" xmlns="http://www.w3.org/2000/svg">
<g id="Group 2608809">
<path id="Vector (Stroke)" fill-rule="evenodd" clip-rule="evenodd" d="M1.52 6.59998C1.80719 6.59998 2.04 6.84525 2.04 7.1478V12.9913C2.04 13.2334 2.13131 13.4657 2.29384 13.6369C2.45637 13.8081 2.67681 13.9043 2.90667 13.9043H11.2267C11.4565 13.9043 11.677 13.8081 11.8395 13.6369C12.002 13.4657 12.0933 13.2334 12.0933 12.9913V7.1478C12.0933 6.84525 12.3261 6.59998 12.6133 6.59998C12.9005 6.59998 13.1333 6.84525 13.1333 7.1478V12.9913C13.1333 13.524 12.9325 14.0349 12.5749 14.4116C12.2173 14.7883 11.7323 15 11.2267 15H2.90667C2.40099 15 1.91602 14.7883 1.55845 14.4116C1.20088 14.0349 1 13.524 1 12.9913V7.1478C1 6.84525 1.23281 6.59998 1.52 6.59998Z" fill="#A8A8A8"/>
<path id="Vector (Stroke) (Stroke)" fill-rule="evenodd" clip-rule="evenodd" d="M0.75 7.1478C0.75 6.71961 1.08262 6.34998 1.52 6.34998C1.95738 6.34998 2.29 6.71961 2.29 7.1478V12.9913C2.29 13.1712 2.35797 13.3413 2.47516 13.4648C2.59194 13.5878 2.74745 13.6543 2.90667 13.6543H11.2267C11.3859 13.6543 11.5414 13.5878 11.6582 13.4648C11.7754 13.3413 11.8433 13.1712 11.8433 12.9913V7.1478C11.8433 6.71961 12.176 6.34998 12.6133 6.34998C13.0507 6.34998 13.3833 6.71961 13.3833 7.1478V12.9913C13.3833 13.5862 13.1591 14.1593 12.7562 14.5838C12.3529 15.0087 11.803 15.25 11.2267 15.25H2.90667C2.33035 15.25 1.78046 15.0087 1.37713 14.5838C0.97422 14.1593 0.75 13.5862 0.75 12.9913V7.1478ZM1.52 6.84998C1.383 6.84998 1.25 6.97088 1.25 7.1478V12.9913C1.25 13.4618 1.42754 13.9106 1.73977 14.2395C2.05158 14.568 2.47162 14.75 2.90667 14.75H11.2267C11.6617 14.75 12.0817 14.568 12.3936 14.2395C12.7058 13.9106 12.8833 13.4618 12.8833 12.9913V7.1478C12.8833 6.97088 12.7503 6.84998 12.6133 6.84998C12.4763 6.84998 12.3433 6.97088 12.3433 7.1478V12.9913C12.3433 13.2957 12.2287 13.59 12.0208 13.809C11.8125 14.0284 11.5272 14.1543 11.2267 14.1543H2.90667C2.60618 14.1543 2.32081 14.0284 2.11252 13.809C1.90465 13.59 1.79 13.2957 1.79 12.9913V7.1478C1.79 6.97088 1.657 6.84998 1.52 6.84998Z" fill="#A8A8A8"/>
<path id="Vector (Stroke)_2" fill-rule="evenodd" clip-rule="evenodd" d="M6.70175 1.14911C6.90318 0.950297 7.22976 0.950297 7.43119 1.14911L10.1821 3.86426C10.3835 4.06307 10.3835 4.38541 10.1821 4.58422C9.98064 4.78304 9.65406 4.78304 9.45263 4.58422L7.06647 2.22905L4.68031 4.58422C4.47888 4.78304 4.1523 4.78304 3.95088 4.58422C3.74945 4.38541 3.74945 4.06307 3.95088 3.86426L6.70175 1.14911Z" fill="#A8A8A8"/>
<path id="Vector (Stroke) (Stroke)_2" fill-rule="evenodd" clip-rule="evenodd" d="M6.52614 0.971181C6.82492 0.676273 7.30802 0.676273 7.60681 0.971181L7.43119 1.14911L7.60681 0.971181L10.3577 3.68633C10.6583 3.98303 10.6583 4.46545 10.3577 4.76215C10.0589 5.05706 9.5758 5.05706 9.27701 4.76215L7.06647 2.58032L4.85593 4.76215C4.55714 5.05706 4.07405 5.05706 3.77526 4.76215C3.47465 4.46545 3.47465 3.98303 3.77526 3.68633L6.52614 0.971181ZM7.25557 1.32704C7.1515 1.22432 6.98144 1.22432 6.87737 1.32704L4.12649 4.04219C4.02424 4.14311 4.02424 4.30537 4.12649 4.4063C4.23056 4.50901 4.40063 4.50901 4.50469 4.4063L6.89085 2.05113C6.98821 1.95503 7.14473 1.95503 7.24209 2.05113L9.62825 4.4063C9.73232 4.50901 9.90238 4.50901 10.0064 4.4063C10.1087 4.30537 10.1087 4.14311 10.0064 4.04219L7.25557 1.32704Z" fill="#A8A8A8"/>
<path id="Vector (Stroke)_3" fill-rule="evenodd" clip-rule="evenodd" d="M7.06628 1C7.32401 1 7.53294 1.21614 7.53294 1.48276V9.85057C7.53294 10.1172 7.32401 10.3333 7.06628 10.3333C6.80854 10.3333 6.59961 10.1172 6.59961 9.85057V1.48276C6.59961 1.21614 6.80854 1 7.06628 1Z" fill="#A8A8A8"/>
<path id="Vector (Stroke) (Stroke)_3" fill-rule="evenodd" clip-rule="evenodd" d="M6.34961 1.48276C6.34961 1.08612 6.66255 0.75 7.06628 0.75C7.47 0.75 7.78294 1.08612 7.78294 1.48276V9.85057C7.78294 10.2472 7.47 10.5833 7.06628 10.5833C6.66255 10.5833 6.34961 10.2472 6.34961 9.85057V1.48276ZM7.06628 1.25C6.95454 1.25 6.84961 1.34615 6.84961 1.48276V9.85057C6.84961 9.98718 6.95454 10.0833 7.06628 10.0833C7.17802 10.0833 7.28294 9.98718 7.28294 9.85057V1.48276C7.28294 1.34615 7.17802 1.25 7.06628 1.25Z" fill="#A8A8A8"/>
</g>
</svg>
