<svg width="18" height="18" viewBox="0 0 18 18" fill="none" xmlns="http://www.w3.org/2000/svg">
<g id="icon">
<g id="Group 2608985">
<path id="Vector (Stroke)" fill-rule="evenodd" clip-rule="evenodd" d="M1.71967 15.5303C1.42678 15.2374 1.42678 14.7626 1.71967 14.4697L7.18934 9L1.71967 3.53033C1.42678 3.23744 1.42678 2.76256 1.71967 2.46967C2.01256 2.17678 2.48744 2.17678 2.78033 2.46967L8.78033 8.46967C9.07322 8.76256 9.07322 9.23744 8.78033 9.53033L2.78033 15.5303C2.48744 15.8232 2.01256 15.8232 1.71967 15.5303Z" fill="#DBDBDB"/>
<path id="Vector (Stroke)_2" fill-rule="evenodd" clip-rule="evenodd" d="M9.21967 15.5303C8.92678 15.2374 8.92678 14.7626 9.21967 14.4697L14.6893 9L9.21967 3.53033C8.92678 3.23744 8.92678 2.76256 9.21967 2.46967C9.51256 2.17678 9.98744 2.17678 10.2803 2.46967L16.2803 8.46967C16.5732 8.76256 16.5732 9.23744 16.2803 9.53033L10.2803 15.5303C9.98744 15.8232 9.51256 15.8232 9.21967 15.5303Z" fill="#DBDBDB"/>
</g>
</g>
</svg>
