<svg width="18" height="18" viewBox="0 0 18 18" fill="none" xmlns="http://www.w3.org/2000/svg">
<g id="icon">
<g id="Group 2608984">
<path id="Vector (Stroke)" fill-rule="evenodd" clip-rule="evenodd" d="M16.2803 2.46967C16.5732 2.76256 16.5732 3.23744 16.2803 3.53033L10.8107 9L16.2803 14.4697C16.5732 14.7626 16.5732 15.2374 16.2803 15.5303C15.9874 15.8232 15.5126 15.8232 15.2197 15.5303L9.21967 9.53033C8.92678 9.23744 8.92678 8.76256 9.21967 8.46967L15.2197 2.46967C15.5126 2.17678 15.9874 2.17678 16.2803 2.46967Z" fill="#DBDBDB"/>
<path id="Vector (Stroke)_2" fill-rule="evenodd" clip-rule="evenodd" d="M8.78033 2.46967C9.07322 2.76256 9.07322 3.23744 8.78033 3.53033L3.31066 9L8.78033 14.4697C9.07322 14.7626 9.07322 15.2374 8.78033 15.5303C8.48744 15.8232 8.01256 15.8232 7.71967 15.5303L1.71967 9.53033C1.42678 9.23744 1.42678 8.76256 1.71967 8.46967L7.71967 2.46967C8.01256 2.17678 8.48744 2.17678 8.78033 2.46967Z" fill="#DBDBDB"/>
</g>
</g>
</svg>
